<svg width="44" height="43" viewBox="0 0 44 43" fill="none" xmlns="http://www.w3.org/2000/svg">
<path d="M22 0C9.85233 0 0 9.8505 0 22C0 31.7203 6.303 39.9667 15.0462 42.8762C16.1443 43.0797 16.5 42.3977 16.5 41.8183V37.7227C10.3803 39.0537 9.10617 35.1267 9.10617 35.1267C8.10517 32.5838 6.66233 31.9073 6.66233 31.9073C4.66583 30.5415 6.8145 30.5708 6.8145 30.5708C9.02367 30.7248 10.186 32.8387 10.186 32.8387C12.1477 36.201 15.3322 35.2293 16.588 34.6665C16.7842 33.2457 17.3543 32.274 17.985 31.7258C13.0992 31.1667 7.96217 29.2802 7.96217 20.8523C7.96217 18.4488 8.822 16.4872 10.2282 14.9472C10.0008 14.3917 9.24733 12.1532 10.4427 9.1245C10.4427 9.1245 12.2907 8.53417 16.4945 11.3795C18.249 10.8918 20.13 10.648 22 10.6388C23.87 10.648 25.7528 10.8918 27.511 11.3795C31.7112 8.53417 33.5555 9.1245 33.5555 9.1245C34.7527 12.155 33.9992 14.3935 33.7718 14.9472C35.1835 16.4872 36.036 18.4507 36.036 20.8523C36.036 29.3022 30.8898 31.163 25.9912 31.7075C26.7795 32.3895 27.5 33.7278 27.5 35.7812V41.8183C27.5 42.4032 27.852 43.0907 28.9685 42.8743C37.7043 39.9612 44 31.7167 44 22C44 9.8505 34.1495 0 22 0Z" fill="#016170"/>
</svg>
