<svg width="44" height="44" viewBox="0 0 44 44" fill="none" xmlns="http://www.w3.org/2000/svg">
<path d="M22.7079 0C27.103 0 30.8903 0.819329 34.07 2.45799C37.2605 4.09664 39.7076 6.42441 41.4114 9.44127C43.126 12.4473 43.9887 16.0393 43.9996 20.2174C44.0213 24.5256 43.1748 27.8952 41.4602 30.326C39.7456 32.746 37.1194 34.0971 33.5816 34.3793C32.1709 34.4878 31.0911 34.3955 30.3423 34.1025C29.5935 33.8204 29.0618 33.4026 28.7471 32.8491C28.4323 32.2848 28.2262 31.6554 28.1285 30.9609H27.9331C27.4882 31.981 26.479 32.7949 24.9054 33.4026C23.3427 34.0103 21.6118 34.2707 19.7127 34.1839C18.0307 34.0863 16.4463 33.5979 14.9595 32.7189C13.4728 31.829 12.2628 30.5105 11.3295 28.7633C10.3963 27.0053 9.90791 24.7698 9.8645 22.0568C9.90791 19.3655 10.3963 17.1625 11.3295 15.4479C12.2737 13.7224 13.4457 12.4147 14.8456 11.5249C16.2455 10.635 17.6617 10.0815 19.0942 9.8645C21.0584 9.5932 22.811 9.70172 24.352 10.1901C25.9038 10.6676 26.8588 11.2861 27.2169 12.0458H27.4611V10.2226H33.0933V26.5007C33.115 27.2061 33.2561 27.7161 33.5165 28.0308C33.777 28.3455 34.1134 28.5029 34.5258 28.5029C35.1552 28.5029 35.7086 28.1936 36.1861 27.575C36.6636 26.9456 37.0326 25.9852 37.293 24.6938C37.5643 23.3916 37.7 21.7366 37.7 19.729C37.6891 17.4935 37.3907 15.5835 36.8047 13.9991C36.2295 12.4147 35.4373 11.1016 34.4281 10.0598C33.4189 9.01804 32.2685 8.19872 30.9771 7.60185C29.6966 7.00499 28.3401 6.58719 26.9076 6.34844C25.486 6.1097 24.0753 5.99033 22.6753 5.99033C19.9189 5.99033 17.526 6.40813 15.4967 7.24374C13.4782 8.06849 11.807 9.21338 10.4831 10.6784C9.15912 12.1434 8.17159 13.8363 7.52046 15.7572C6.88019 17.678 6.55463 19.7453 6.54378 21.9591C6.57634 26.9944 7.97625 30.8306 10.7435 33.4677C13.5108 36.0939 17.5043 37.407 22.7242 37.407C24.6341 37.407 26.4356 37.2388 28.1285 36.9024C29.8323 36.5659 31.1833 36.1861 32.1817 35.7629L34.0374 41.0533C32.9631 41.7044 31.3678 42.2633 29.2517 42.7299C27.1355 43.2074 24.8132 43.4461 22.2847 43.4461C17.6074 43.4461 13.603 42.6051 10.2715 40.923C6.95073 39.2518 4.41135 36.8372 2.65332 33.6793C0.906145 30.5322 0.0217041 26.7231 0 22.2521C0.0108521 18.9314 0.515472 15.9145 1.51386 13.2015C2.5231 10.4776 3.99355 8.1336 5.92521 6.16938C7.86773 4.20517 10.2443 2.68588 13.055 1.61153C15.8765 0.537176 19.0942 0 22.7079 0ZM21.8289 16.0176C20.0383 16.0176 18.6601 16.5277 17.6943 17.5477C16.7393 18.5678 16.2509 20.0057 16.2292 21.8614C16.2292 22.6753 16.3269 23.4567 16.5222 24.2055C16.7176 24.9543 17.0323 25.6271 17.4664 26.224C17.9113 26.81 18.4919 27.2766 19.2081 27.6239C19.9352 27.9711 20.8305 28.1448 21.894 28.1448C23.1854 28.1448 24.2055 27.9006 24.9543 27.4123C25.7031 26.9239 26.2348 26.2131 26.5495 25.2798C26.8642 24.3357 27.0053 23.18 26.9727 21.8126C26.9836 20.6731 26.8479 19.6693 26.5658 18.8012C26.2836 17.933 25.7736 17.2547 25.0357 16.7664C24.2977 16.2672 23.2288 16.0176 21.8289 16.0176Z" fill="#016170"/>
</svg>
