<svg width="44" height="44" viewBox="0 0 44 44" fill="none" xmlns="http://www.w3.org/2000/svg">
<g clip-path="url(#clip0_25_289)">
<path fill-rule="evenodd" clip-rule="evenodd" d="M22 0C9.85233 0 0 9.84867 0 22C0 34.1495 9.85233 44 22 44C34.1495 44 44 34.1495 44 22C44 9.84867 34.1495 0 22 0ZM34.7857 32.1878V31.757L32.7837 29.7917C32.6077 29.6578 32.5197 29.436 32.5563 29.2178V14.7822C32.5197 14.564 32.6077 14.3422 32.7837 14.2083L34.8333 12.243V11.8122H27.7402L22.6838 24.4255L16.9308 11.8122H9.48933V12.243L11.8873 15.1305C12.122 15.3413 12.243 15.653 12.21 15.9683V27.313C12.2797 27.7218 12.1513 28.1398 11.8635 28.4387L9.16667 31.7093V32.1402H16.8117V31.7093L14.1148 28.4387C13.8252 28.1398 13.6877 27.7255 13.7445 27.313V17.501L20.4545 32.1402H21.2337L26.9958 17.501V29.1702C26.9958 29.4818 26.9958 29.5405 26.7923 29.744L24.7207 31.757V32.1878H34.7857Z" fill="#016170"/>
</g>
<defs>
<clipPath id="clip0_25_289">
<rect width="44" height="44" fill="white"/>
</clipPath>
</defs>
</svg>
