<svg width="1236" height="567" viewBox="0 0 1236 567" fill="none" xmlns="http://www.w3.org/2000/svg">
<rect width="1236" height="567" fill="#292929"/>
<path d="M133.255 201.955C126.829 201.955 121.206 200.657 116.386 198.062C111.566 195.405 107.828 191.697 105.171 186.939C102.514 182.119 101.185 176.465 101.185 169.977C101.185 163.489 102.514 157.866 105.171 153.108C107.828 148.288 111.566 144.581 116.386 141.986C121.206 139.329 126.829 138 133.255 138C139.126 138 144.285 138.989 148.734 140.966C153.245 142.882 156.736 145.662 159.208 149.308C161.741 152.892 163.008 157.186 163.008 162.192V163.396H151.978V162.192C151.978 157.434 150.434 153.819 147.344 151.347C144.316 148.875 139.651 147.64 133.348 147.64C128.466 147.64 124.419 148.443 121.206 150.049C118.055 151.594 115.676 154.004 114.069 157.279C112.524 160.554 111.752 164.787 111.752 169.977C111.752 175.106 112.524 179.339 114.069 182.676C115.676 185.951 118.055 188.391 121.206 189.998C124.419 191.543 128.466 192.315 133.348 192.315C139.651 192.315 144.316 191.079 147.344 188.608C150.434 186.136 151.978 182.521 151.978 177.763V176.558H163.008V177.763C163.008 182.706 161.741 187.001 159.208 190.647C156.736 194.292 153.245 197.104 148.734 199.081C144.285 200.997 139.126 201.955 133.255 201.955Z" fill="#C4C4C4"/>
<path d="M200.877 201.955C194.389 201.955 188.704 200.657 183.822 198.062C179.003 195.405 175.233 191.697 172.514 186.939C169.857 182.119 168.529 176.465 168.529 169.977C168.529 163.489 169.857 157.866 172.514 153.108C175.233 148.288 179.003 144.581 183.822 141.986C188.704 139.329 194.389 138 200.877 138C207.489 138 213.204 139.329 218.024 141.986C222.844 144.581 226.582 148.288 229.239 153.108C231.958 157.866 233.318 163.489 233.318 169.977C233.318 176.465 231.958 182.119 229.239 186.939C226.582 191.697 222.844 195.405 218.024 198.062C213.204 200.657 207.489 201.955 200.877 201.955ZM200.877 192.315C205.758 192.315 209.806 191.543 213.019 189.998C216.294 188.391 218.735 185.951 220.341 182.676C221.948 179.339 222.751 175.106 222.751 169.977C222.751 164.787 221.948 160.554 220.341 157.279C218.735 154.004 216.294 151.594 213.019 150.049C209.806 148.443 205.758 147.64 200.877 147.64C195.995 147.64 191.917 148.443 188.642 150.049C185.429 151.594 183.019 154.004 181.412 157.279C179.868 160.554 179.095 164.787 179.095 169.977C179.095 175.106 179.868 179.339 181.412 182.676C183.019 185.951 185.429 188.391 188.642 189.998C191.917 191.543 195.995 192.315 200.877 192.315Z" fill="#C4C4C4"/>
<path d="M250.723 201.028H240.713V138.927H272.969C277.665 138.927 281.712 139.637 285.111 141.059C288.571 142.48 291.197 144.55 292.989 147.269C294.843 149.988 295.77 153.293 295.77 157.186C295.77 160.647 295.028 163.613 293.545 166.084C292.124 168.556 290.023 170.503 287.242 171.924C284.524 173.345 281.218 174.179 277.325 174.426V175.075C279.735 175.693 281.588 176.713 282.886 178.134C284.246 179.493 285.481 181.162 286.594 183.139L296.975 201.028H285.481L275.564 183.88C274.637 182.212 273.617 180.884 272.505 179.895C271.455 178.844 270.126 178.103 268.52 177.67C266.913 177.176 264.781 176.929 262.124 176.929H250.723V201.028ZM250.723 147.918V169.236H272.876C277.016 169.236 280.136 168.433 282.237 166.826C284.338 165.219 285.389 162.47 285.389 158.577C285.389 154.807 284.338 152.089 282.237 150.42C280.136 148.752 277.016 147.918 272.876 147.918H250.723Z" fill="#C4C4C4"/>
<path d="M312.998 201.028H302.988V138.927H312.998V201.028ZM352.669 201.028H306.046V192.037H352.669V201.028ZM351.278 174.241H306.046V165.343H351.278V174.241ZM352.669 147.918H306.046V138.927H352.669V147.918Z" fill="#C4C4C4"/>
<path d="M433.34 201.028H408.314V192.037H433.34C438.159 192.037 442.083 191.326 445.111 189.905C448.2 188.422 450.487 186.074 451.97 182.861C453.453 179.586 454.194 175.291 454.194 169.977C454.194 164.601 453.453 160.307 451.97 157.094C450.487 153.881 448.2 151.563 445.111 150.142C442.083 148.659 438.159 147.918 433.34 147.918H408.314V138.927H433.34C439.828 138.927 445.389 140.194 450.023 142.727C454.72 145.199 458.334 148.752 460.868 153.386C463.463 158.021 464.761 163.551 464.761 169.977C464.761 176.404 463.463 181.934 460.868 186.568C458.334 191.203 454.72 194.787 450.023 197.32C445.389 199.792 439.828 201.028 433.34 201.028ZM414.987 201.028H405.07V138.927H414.987V201.028Z" fill="#C4C4C4"/>
<path d="M478.707 201.028H467.585L495.298 138.927H509.387L537.101 201.028H525.793L506.236 157.001L502.621 148.196H501.879L498.264 157.001L478.707 201.028ZM522.734 184.9H481.303V175.909H522.734V184.9Z" fill="#C4C4C4"/>
<path d="M572.6 201.028H562.682V138.927H572.6V201.028ZM596.977 147.918H538.213V138.927H596.977V147.918Z" fill="#C4C4C4"/>
<path d="M609.321 201.028H598.199L625.912 138.927H640.001L667.714 201.028H656.407L636.849 157.001L633.235 148.196H632.493L628.878 157.001L609.321 201.028ZM653.348 184.9H611.916V175.909H653.348V184.9Z" fill="#C4C4C4"/>
<path d="M746.614 201.955C740.187 201.955 734.564 200.657 729.744 198.062C724.925 195.405 721.186 191.697 718.529 186.939C715.872 182.119 714.544 176.465 714.544 169.977C714.544 163.489 715.872 157.866 718.529 153.108C721.186 148.288 724.925 144.581 729.744 141.986C734.564 139.329 740.187 138 746.614 138C752.484 138 757.643 138.989 762.092 140.966C766.603 142.882 770.094 145.662 772.566 149.308C775.1 152.892 776.366 157.186 776.366 162.192V163.396H765.336V162.192C765.336 157.434 763.792 153.819 760.702 151.347C757.674 148.875 753.009 147.64 746.706 147.64C741.825 147.64 737.777 148.443 734.564 150.049C731.413 151.594 729.034 154.004 727.427 157.279C725.882 160.554 725.11 164.787 725.11 169.977C725.11 175.106 725.882 179.339 727.427 182.676C729.034 185.951 731.413 188.391 734.564 189.998C737.777 191.543 741.825 192.315 746.706 192.315C753.009 192.315 757.674 191.079 760.702 188.608C763.792 186.136 765.336 182.521 765.336 177.763V176.558H776.366V177.763C776.366 182.706 775.1 187.001 772.566 190.647C770.094 194.292 766.603 197.104 762.092 199.081C757.643 200.997 752.484 201.955 746.614 201.955Z" fill="#C4C4C4"/>
<path d="M814.235 201.955C807.747 201.955 802.062 200.657 797.181 198.062C792.361 195.405 788.591 191.697 785.873 186.939C783.216 182.119 781.887 176.465 781.887 169.977C781.887 163.489 783.216 157.866 785.873 153.108C788.591 148.288 792.361 144.581 797.181 141.986C802.062 139.329 807.747 138 814.235 138C820.847 138 826.563 139.329 831.382 141.986C836.202 144.581 839.941 148.288 842.598 153.108C845.316 157.866 846.676 163.489 846.676 169.977C846.676 176.465 845.316 182.119 842.598 186.939C839.941 191.697 836.202 195.405 831.382 198.062C826.563 200.657 820.847 201.955 814.235 201.955ZM814.235 192.315C819.117 192.315 823.164 191.543 826.377 189.998C829.652 188.391 832.093 185.951 833.7 182.676C835.306 179.339 836.109 175.106 836.109 169.977C836.109 164.787 835.306 160.554 833.7 157.279C832.093 154.004 829.652 151.594 826.377 150.049C823.164 148.443 819.117 147.64 814.235 147.64C809.354 147.64 805.275 148.443 802 150.049C798.787 151.594 796.377 154.004 794.771 157.279C793.226 160.554 792.453 164.787 792.453 169.977C792.453 175.106 793.226 179.339 794.771 182.676C796.377 185.951 798.787 188.391 802 189.998C805.275 191.543 809.354 192.315 814.235 192.315Z" fill="#C4C4C4"/>
<path d="M864.082 201.028H854.071V138.927H867.696L885.585 174.89L891.239 187.773H891.981L897.449 174.89L915.153 138.927H928.778V201.028H918.767V162.933L919.138 153.942H918.397L914.596 162.933L897.449 197.32H885.4L868.253 162.933L864.452 153.942H863.711L864.082 162.933V201.028Z" fill="#C4C4C4"/>
<path d="M973.662 201.028H937.606V138.927H972.364C976.381 138.927 979.779 139.514 982.56 140.688C985.402 141.862 987.565 143.592 989.048 145.878C990.593 148.165 991.365 150.945 991.365 154.22C991.365 157.866 990.284 160.956 988.121 163.489C986.02 166.023 982.591 167.567 977.833 168.124V168.772C983.147 169.39 987.102 171.059 989.697 173.778C992.292 176.435 993.59 179.802 993.59 183.88C993.59 187.403 992.817 190.461 991.273 193.057C989.728 195.652 987.472 197.629 984.506 198.989C981.54 200.348 977.925 201.028 973.662 201.028ZM947.524 173.221V192.037H972.55C976.257 192.037 979.007 191.296 980.799 189.812C982.653 188.268 983.579 185.827 983.579 182.49C983.579 179.215 982.653 176.867 980.799 175.446C979.007 173.963 976.257 173.221 972.55 173.221H947.524ZM947.524 147.918V164.972H970.974C974.496 164.972 977.122 164.292 978.852 162.933C980.583 161.512 981.448 159.349 981.448 156.445C981.448 153.541 980.613 151.409 978.945 150.049C977.277 148.628 974.712 147.918 971.252 147.918H947.524Z" fill="#C4C4C4"/>
<path d="M1010.08 201.028H1000.07V138.927H1010.08V201.028Z" fill="#C4C4C4"/>
<path d="M1029.36 201.028H1019.35V138.927H1030.1L1057.91 175.261L1065.97 186.846H1066.72L1066.25 175.631V138.927H1076.26V201.028H1065.51L1037.52 164.787L1029.73 153.85H1028.99L1029.36 164.601V201.028Z" fill="#C4C4C4"/>
<path d="M1095.53 201.028H1085.52V138.927H1095.53V201.028ZM1135.2 201.028H1088.58V192.037H1135.2V201.028ZM1133.81 174.241H1088.58V165.343H1133.81V174.241ZM1135.2 147.918H1088.58V138.927H1135.2V147.918Z" fill="#C4C4C4"/>
<path d="M129.084 315.961C122.967 315.961 117.807 315.096 113.606 313.365C109.465 311.635 106.345 309.194 104.244 306.043C102.143 302.83 101.093 299.061 101.093 294.735V294.179H111.103V295.662C111.103 298.134 111.659 300.204 112.771 301.872C113.884 303.479 115.737 304.715 118.333 305.58C120.928 306.383 124.512 306.785 129.084 306.785C133.039 306.785 136.19 306.506 138.539 305.95C140.887 305.332 142.555 304.406 143.544 303.17C144.594 301.872 145.119 300.265 145.119 298.35C145.119 295.631 144.254 293.654 142.524 292.418C140.794 291.182 137.982 290.193 134.09 289.452L118.889 286.949C115.428 286.27 112.339 285.281 109.62 283.983C106.901 282.624 104.769 280.832 103.225 278.607C101.742 276.321 101 273.479 101 270.08C101 267.856 101.494 265.662 102.483 263.499C103.472 261.337 105.016 259.39 107.117 257.66C109.218 255.93 111.937 254.57 115.274 253.582C118.672 252.531 122.813 252.006 127.694 252.006C133.75 252.006 138.724 252.933 142.617 254.787C146.51 256.64 149.383 259.174 151.237 262.387C153.152 265.538 154.11 269.153 154.11 273.232V273.788H144.193V272.583C144.193 270.049 143.636 267.948 142.524 266.28C141.412 264.55 139.589 263.283 137.056 262.48C134.522 261.615 131.093 261.182 126.767 261.182C122.998 261.182 119.939 261.491 117.591 262.109C115.305 262.727 113.636 263.654 112.586 264.89C111.536 266.064 111.01 267.608 111.01 269.524C111.01 271.254 111.381 272.675 112.123 273.788C112.864 274.9 114.007 275.796 115.552 276.476C117.097 277.094 119.074 277.681 121.484 278.237L136.592 280.832C140.732 281.573 144.162 282.686 146.88 284.169C149.661 285.652 151.731 287.536 153.091 289.823C154.45 292.109 155.13 294.766 155.13 297.794C155.13 300.945 154.234 303.911 152.442 306.692C150.65 309.472 147.838 311.728 144.007 313.458C140.176 315.126 135.202 315.961 129.084 315.961Z" fill="#C4C4C4"/>
<path d="M192.731 315.961C186.242 315.961 180.558 314.663 175.676 312.068C170.856 309.411 167.087 305.703 164.368 300.945C161.711 296.125 160.382 290.471 160.382 283.983C160.382 277.495 161.711 271.872 164.368 267.114C167.087 262.294 170.856 258.587 175.676 255.992C180.558 253.335 186.242 252.006 192.731 252.006C199.342 252.006 205.058 253.335 209.878 255.992C214.698 258.587 218.436 262.294 221.093 267.114C223.812 271.872 225.171 277.495 225.171 283.983C225.171 290.471 223.812 296.125 221.093 300.945C218.436 305.703 214.698 309.411 209.878 312.068C205.058 314.663 199.342 315.961 192.731 315.961ZM192.731 306.321C197.612 306.321 201.659 305.549 204.873 304.004C208.148 302.397 210.588 299.957 212.195 296.682C213.802 293.345 214.605 289.112 214.605 283.983C214.605 278.793 213.802 274.56 212.195 271.285C210.588 268.01 208.148 265.6 204.873 264.055C201.659 262.449 197.612 261.646 192.731 261.646C187.849 261.646 183.771 262.449 180.496 264.055C177.283 265.6 174.873 268.01 173.266 271.285C171.721 274.56 170.949 278.793 170.949 283.983C170.949 289.112 171.721 293.345 173.266 296.682C174.873 299.957 177.283 302.397 180.496 304.004C183.771 305.549 187.849 306.321 192.731 306.321Z" fill="#C4C4C4"/>
<path d="M242.577 315.034H232.567V252.933H242.577V315.034ZM280.857 315.034H235.533V306.043H280.857V315.034Z" fill="#C4C4C4"/>
<path d="M297.339 315.034H287.329V252.933H297.339V315.034Z" fill="#C4C4C4"/>
<path d="M335.434 315.034H310.409V306.043H335.434C340.254 306.043 344.178 305.332 347.206 303.911C350.295 302.428 352.582 300.08 354.065 296.867C355.548 293.592 356.289 289.297 356.289 283.983C356.289 278.607 355.548 274.313 354.065 271.1C352.582 267.887 350.295 265.569 347.206 264.148C344.178 262.665 340.254 261.924 335.434 261.924H310.409V252.933H335.434C341.922 252.933 347.484 254.2 352.118 256.733C356.814 259.205 360.429 262.758 362.963 267.392C365.558 272.027 366.856 277.557 366.856 283.983C366.856 290.41 365.558 295.94 362.963 300.574C360.429 305.209 356.814 308.793 352.118 311.326C347.484 313.798 341.922 315.034 335.434 315.034ZM317.082 315.034H307.165V252.933H317.082V315.034Z" fill="#C4C4C4"/>
<path d="M399.383 315.034H388.261L415.974 252.933H430.063L457.776 315.034H446.469L426.911 271.007L423.297 262.202H422.555L418.94 271.007L399.383 315.034ZM443.41 298.906H401.978V289.915H443.41V298.906Z" fill="#C4C4C4"/>
<path d="M498.003 315.034H483.822L457.313 252.933H469.177L490.681 304.931H491.422L512.74 252.933H524.512L498.003 315.034Z" fill="#C4C4C4"/>
<path d="M538.769 315.034H528.759V252.933H538.769V315.034ZM576.771 290.101H531.817V281.203H576.771V290.101ZM578.161 261.924H531.817V252.933H578.161V261.924Z" fill="#C4C4C4"/>
<path d="M616.097 315.961C609.609 315.961 603.924 314.663 599.042 312.068C594.222 309.411 590.453 305.703 587.734 300.945C585.077 296.125 583.749 290.471 583.749 283.983C583.749 277.495 585.077 271.872 587.734 267.114C590.453 262.294 594.222 258.587 599.042 255.992C603.924 253.335 609.609 252.006 616.097 252.006C622.708 252.006 628.424 253.335 633.244 255.992C638.064 258.587 641.802 262.294 644.459 267.114C647.178 271.872 648.538 277.495 648.538 283.983C648.538 290.471 647.178 296.125 644.459 300.945C641.802 305.703 638.064 309.411 633.244 312.068C628.424 314.663 622.708 315.961 616.097 315.961ZM616.097 306.321C620.978 306.321 625.026 305.549 628.239 304.004C631.514 302.397 633.955 299.957 635.561 296.682C637.168 293.345 637.971 289.112 637.971 283.983C637.971 278.793 637.168 274.56 635.561 271.285C633.955 268.01 631.514 265.6 628.239 264.055C625.026 262.449 620.978 261.646 616.097 261.646C611.215 261.646 607.137 262.449 603.862 264.055C600.649 265.6 598.239 268.01 596.632 271.285C595.088 274.56 594.315 278.793 594.315 283.983C594.315 289.112 595.088 293.345 596.632 296.682C598.239 299.957 600.649 302.397 603.862 304.004C607.137 305.549 611.215 306.321 616.097 306.321Z" fill="#C4C4C4"/>
<path d="M684.666 315.961C678.487 315.961 673.235 314.91 668.909 312.809C664.584 310.708 661.278 307.681 658.992 303.726C656.705 299.709 655.562 294.89 655.562 289.267V252.933H665.48V288.618C665.48 292.82 666.129 296.218 667.426 298.813C668.786 301.409 670.856 303.324 673.636 304.56C676.479 305.734 680.155 306.321 684.666 306.321C689.239 306.321 692.915 305.734 695.696 304.56C698.538 303.324 700.609 301.409 701.906 298.813C703.204 296.218 703.853 292.82 703.853 288.618V252.933H713.863V289.267C713.863 294.89 712.72 299.709 710.433 303.726C708.147 307.681 704.841 310.708 700.516 312.809C696.19 314.91 690.907 315.961 684.666 315.961Z" fill="#C4C4C4"/>
<path d="M732.744 315.034H722.733V252.933H733.485L761.292 289.267L769.355 300.853H770.097L769.633 289.637V252.933H779.644V315.034H768.892L740.9 278.793L733.114 267.856H732.373L732.744 278.607V315.034Z" fill="#C4C4C4"/>
<path d="M817.726 315.034H792.7V306.043H817.726C822.546 306.043 826.47 305.332 829.497 303.911C832.587 302.428 834.873 300.08 836.356 296.867C837.839 293.592 838.581 289.297 838.581 283.983C838.581 278.607 837.839 274.313 836.356 271.1C834.873 267.887 832.587 265.569 829.497 264.148C826.47 262.665 822.546 261.924 817.726 261.924H792.7V252.933H817.726C824.214 252.933 829.776 254.2 834.41 256.733C839.106 259.205 842.721 262.758 845.254 267.392C847.85 272.027 849.147 277.557 849.147 283.983C849.147 290.41 847.85 295.94 845.254 300.574C842.721 305.209 839.106 308.793 834.41 311.326C829.776 313.798 824.214 315.034 817.726 315.034ZM799.374 315.034H789.456V252.933H799.374V315.034Z" fill="#C4C4C4"/>
<path d="M863.094 315.034H851.971L879.685 252.933H893.774L921.487 315.034H910.179L890.622 271.007L887.007 262.202H886.266L882.651 271.007L863.094 315.034ZM907.121 298.906H865.689V289.915H907.121V298.906Z" fill="#C4C4C4"/>
<path d="M956.987 315.034H947.069V252.933H956.987V315.034ZM981.364 261.924H922.599V252.933H981.364V261.924Z" fill="#C4C4C4"/>
<path d="M997.23 315.034H987.22V252.933H997.23V315.034Z" fill="#C4C4C4"/>
<path d="M1036.99 315.961C1030.51 315.961 1024.82 314.663 1019.94 312.068C1015.12 309.411 1011.35 305.703 1008.63 300.945C1005.97 296.125 1004.65 290.471 1004.65 283.983C1004.65 277.495 1005.97 271.872 1008.63 267.114C1011.35 262.294 1015.12 258.587 1019.94 255.992C1024.82 253.335 1030.51 252.006 1036.99 252.006C1043.61 252.006 1049.32 253.335 1054.14 255.992C1058.96 258.587 1062.7 262.294 1065.36 267.114C1068.07 271.872 1069.43 277.495 1069.43 283.983C1069.43 290.471 1068.07 296.125 1065.36 300.945C1062.7 305.703 1058.96 309.411 1054.14 312.068C1049.32 314.663 1043.61 315.961 1036.99 315.961ZM1036.99 306.321C1041.88 306.321 1045.92 305.549 1049.14 304.004C1052.41 302.397 1054.85 299.957 1056.46 296.682C1058.06 293.345 1058.87 289.112 1058.87 283.983C1058.87 278.793 1058.06 274.56 1056.46 271.285C1054.85 268.01 1052.41 265.6 1049.14 264.055C1045.92 262.449 1041.88 261.646 1036.99 261.646C1032.11 261.646 1028.03 262.449 1024.76 264.055C1021.55 265.6 1019.14 268.01 1017.53 271.285C1015.98 274.56 1015.21 278.793 1015.21 283.983C1015.21 289.112 1015.98 293.345 1017.53 296.682C1019.14 299.957 1021.55 302.397 1024.76 304.004C1028.03 305.549 1032.11 306.321 1036.99 306.321Z" fill="#C4C4C4"/>
<path d="M1086.84 315.034H1076.83V252.933H1087.58L1115.39 289.267L1123.45 300.853H1124.19L1123.73 289.637V252.933H1133.74V315.034H1122.99L1095 278.793L1087.21 267.856H1086.47L1086.84 278.607V315.034Z" fill="#C4C4C4"/>
<path d="M129.084 429.967C122.967 429.967 117.807 429.102 113.606 427.371C109.465 425.641 106.345 423.2 104.244 420.049C102.143 416.836 101.093 413.067 101.093 408.741V408.185H111.103V409.668C111.103 412.14 111.659 414.21 112.771 415.878C113.884 417.485 115.737 418.721 118.333 419.586C120.928 420.389 124.512 420.791 129.084 420.791C133.039 420.791 136.19 420.513 138.539 419.956C140.887 419.338 142.555 418.412 143.544 417.176C144.594 415.878 145.119 414.272 145.119 412.356C145.119 409.637 144.254 407.66 142.524 406.424C140.794 405.188 137.982 404.199 134.09 403.458L118.889 400.955C115.428 400.276 112.339 399.287 109.62 397.989C106.901 396.63 104.769 394.838 103.225 392.613C101.742 390.327 101 387.485 101 384.086C101 381.862 101.494 379.668 102.483 377.505C103.472 375.343 105.016 373.396 107.117 371.666C109.218 369.936 111.937 368.576 115.274 367.588C118.672 366.537 122.813 366.012 127.694 366.012C133.75 366.012 138.724 366.939 142.617 368.793C146.51 370.646 149.383 373.18 151.237 376.393C153.152 379.544 154.11 383.159 154.11 387.238V387.794H144.193V386.589C144.193 384.055 143.636 381.954 142.524 380.286C141.412 378.556 139.589 377.289 137.056 376.486C134.522 375.621 131.093 375.188 126.767 375.188C122.998 375.188 119.939 375.497 117.591 376.115C115.305 376.733 113.636 377.66 112.586 378.896C111.536 380.07 111.01 381.615 111.01 383.53C111.01 385.26 111.381 386.681 112.123 387.794C112.864 388.906 114.007 389.802 115.552 390.482C117.097 391.1 119.074 391.687 121.484 392.243L136.592 394.838C140.732 395.579 144.162 396.692 146.88 398.175C149.661 399.658 151.731 401.542 153.091 403.829C154.45 406.115 155.13 408.772 155.13 411.8C155.13 414.951 154.234 417.917 152.442 420.698C150.65 423.479 147.838 425.734 144.007 427.464C140.176 429.132 135.202 429.967 129.084 429.967Z" fill="#C4C4C4"/>
<path d="M190.043 429.04H175.305L158.899 366.939H170.022L180.125 406.239L182.906 419.4H183.647L186.984 406.239L199.497 366.939H214.049L227.396 406.239L230.918 419.4H231.659L234.255 406.239L243.523 366.939H254.461L238.889 429.04H224.152L211.639 392.892L207.097 376.949H206.263L201.814 392.892L190.043 429.04Z" fill="#C4C4C4"/>
<path d="M270.365 429.04H260.355V366.939H270.365V429.04Z" fill="#C4C4C4"/>
<path d="M289.645 429.04H279.635V366.939H289.645V429.04ZM327.647 404.107H282.694V395.209H327.647V404.107ZM329.037 375.93H282.694V366.939H329.037V375.93Z" fill="#C4C4C4"/>
<path d="M367.344 429.04H357.426V366.939H367.344V429.04ZM391.72 375.93H332.956V366.939H391.72V375.93Z" fill="#C4C4C4"/>
<path d="M426.31 429.967C420.131 429.967 414.878 428.916 410.553 426.815C406.227 424.714 402.921 421.687 400.635 417.732C398.349 413.715 397.206 408.896 397.206 403.273V366.939H407.123V402.624C407.123 406.826 407.772 410.224 409.07 412.819C410.429 415.415 412.499 417.33 415.28 418.566C418.122 419.74 421.799 420.327 426.31 420.327C430.882 420.327 434.559 419.74 437.34 418.566C440.182 417.33 442.252 415.415 443.55 412.819C444.847 410.224 445.496 406.826 445.496 402.624V366.939H455.506V403.273C455.506 408.896 454.363 413.715 452.077 417.732C449.791 421.687 446.485 424.714 442.159 426.815C437.834 428.916 432.551 429.967 426.31 429.967Z" fill="#C4C4C4"/>
<path d="M474.387 429.04H464.377V366.939H474.387V429.04Z" fill="#C4C4C4"/>
<path d="M505.985 429.04H494.862L522.576 366.939H536.665L564.378 429.04H553.07L533.513 385.013L529.898 376.208H529.157L525.542 385.013L505.985 429.04ZM550.012 412.912H508.58V403.921H550.012V412.912Z" fill="#C4C4C4"/>
<path d="M595.058 429.967C588.941 429.967 583.781 429.102 579.579 427.371C575.439 425.641 572.319 423.2 570.218 420.049C568.117 416.836 567.066 413.067 567.066 408.741V408.185H577.077V409.668C577.077 412.14 577.633 414.21 578.745 415.878C579.857 417.485 581.711 418.721 584.306 419.586C586.902 420.389 590.485 420.791 595.058 420.791C599.013 420.791 602.164 420.513 604.512 419.956C606.86 419.338 608.529 418.412 609.517 417.176C610.568 415.878 611.093 414.272 611.093 412.356C611.093 409.637 610.228 407.66 608.498 406.424C606.768 405.188 603.956 404.199 600.063 403.458L584.862 400.955C581.402 400.276 578.312 399.287 575.594 397.989C572.875 396.63 570.743 394.838 569.198 392.613C567.715 390.327 566.974 387.485 566.974 384.086C566.974 381.862 567.468 379.668 568.457 377.505C569.445 375.343 570.99 373.396 573.091 371.666C575.192 369.936 577.911 368.576 581.248 367.588C584.646 366.537 588.786 366.012 593.668 366.012C599.723 366.012 604.698 366.939 608.59 368.793C612.483 370.646 615.357 373.18 617.21 376.393C619.126 379.544 620.084 383.159 620.084 387.238V387.794H610.166V386.589C610.166 384.055 609.61 381.954 608.498 380.286C607.386 378.556 605.563 377.289 603.029 376.486C600.496 375.621 597.066 375.188 592.741 375.188C588.972 375.188 585.913 375.497 583.565 376.115C581.278 376.733 579.61 377.66 578.56 378.896C577.509 380.07 576.984 381.615 576.984 383.53C576.984 385.26 577.355 386.681 578.096 387.794C578.838 388.906 579.981 389.802 581.526 390.482C583.07 391.1 585.048 391.687 587.458 392.243L602.566 394.838C606.706 395.579 610.135 396.692 612.854 398.175C615.635 399.658 617.705 401.542 619.064 403.829C620.424 406.115 621.103 408.772 621.103 411.8C621.103 414.951 620.207 417.917 618.415 420.698C616.623 423.479 613.812 425.734 609.981 427.464C606.15 429.132 601.175 429.967 595.058 429.967Z" fill="#C4C4C4"/>
<path d="M659.816 408.185H650.548L622.927 366.939H635.161L649.806 388.999L654.997 396.877H655.738L660.836 388.999L675.388 366.939H687.716L659.816 408.185ZM660.095 429.04H650.177V401.697H660.095V429.04Z" fill="#C4C4C4"/>
<path d="M701.581 429.04H691.571V366.939H702.323L730.129 403.273L738.193 414.859H738.934L738.471 403.643V366.939H748.481V429.04H737.729L709.737 392.799L701.952 381.862H701.21L701.581 392.613V429.04Z" fill="#C4C4C4"/>
<path d="M787.954 429.967C781.527 429.967 775.904 428.669 771.085 426.074C766.265 423.417 762.526 419.709 759.869 414.951C757.212 410.131 755.884 404.478 755.884 397.989C755.884 391.501 757.212 385.878 759.869 381.12C762.526 376.3 766.265 372.593 771.085 369.998C775.904 367.341 781.527 366.012 787.954 366.012C793.824 366.012 798.984 367.001 803.433 368.978C807.943 370.894 811.435 373.674 813.906 377.32C816.44 380.904 817.707 385.198 817.707 390.204V391.409H806.677V390.204C806.677 385.446 805.132 381.831 802.042 379.359C799.014 376.887 794.349 375.652 788.046 375.652C783.165 375.652 779.117 376.455 775.904 378.061C772.753 379.606 770.374 382.016 768.767 385.291C767.223 388.566 766.45 392.799 766.45 397.989C766.45 403.118 767.223 407.351 768.767 410.688C770.374 413.963 772.753 416.403 775.904 418.01C779.117 419.555 783.165 420.327 788.046 420.327C794.349 420.327 799.014 419.091 802.042 416.62C805.132 414.148 806.677 410.533 806.677 405.775V404.57H817.707V405.775C817.707 410.718 816.44 415.013 813.906 418.659C811.435 422.304 807.943 425.116 803.433 427.093C798.984 429.009 793.824 429.967 787.954 429.967Z" fill="#C4C4C4"/>
<path d="M869.654 429.967C863.475 429.967 858.223 428.916 853.898 426.815C849.572 424.714 846.266 421.687 843.98 417.732C841.694 413.715 840.55 408.896 840.55 403.273V366.939H850.468V402.624C850.468 406.826 851.117 410.224 852.415 412.819C853.774 415.415 855.844 417.33 858.625 418.566C861.467 419.74 865.144 420.327 869.654 420.327C874.227 420.327 877.904 419.74 880.684 418.566C883.527 417.33 885.597 415.415 886.894 412.819C888.192 410.224 888.841 406.826 888.841 402.624V366.939H898.851V403.273C898.851 408.896 897.708 413.715 895.422 417.732C893.135 421.687 889.83 424.714 885.504 426.815C881.179 428.916 875.895 429.967 869.654 429.967Z" fill="#C4C4C4"/>
<path d="M917.732 429.04H907.722V366.939H917.732V429.04Z" fill="#C4C4C4"/>
<path d="M985.766 429.04H973.901L956.013 403.087H934.231V393.448H955.827L973.994 366.939H985.858L964.169 397.619L985.766 429.04ZM937.012 429.04H927.001V366.939H937.012V429.04Z" fill="#C4C4C4"/>
<path d="M1001.19 429.04H991.177V366.939H1001.19V429.04Z" fill="#C4C4C4"/>
<path d="M1041.32 429.04H1031.4V366.939H1041.32V429.04ZM1065.7 375.93H1006.93V366.939H1065.7V375.93Z" fill="#C4C4C4"/>
<circle cx="1096.19" cy="414.673" r="14.3666" fill="#D5FF40"/>
</svg>
