<svg width="1236" height="561" viewBox="0 0 1236 561" fill="none" xmlns="http://www.w3.org/2000/svg">
<rect width="1236" height="561" fill="#292929"/>
<path d="M98.5906 207.844H76.4591V199.878H98.5906C102.853 199.878 106.323 199.248 109.001 197.989C111.733 196.675 113.755 194.595 115.066 191.748C116.378 188.846 117.033 185.041 117.033 180.333C117.033 175.569 116.378 171.764 115.066 168.917C113.755 166.07 111.733 164.017 109.001 162.758C106.323 161.444 102.853 160.787 98.5906 160.787H76.4591V152.821H98.5906C104.328 152.821 109.246 153.944 113.345 156.188C117.498 158.378 120.695 161.526 122.935 165.632C125.23 169.739 126.378 174.639 126.378 180.333C126.378 186.026 125.23 190.926 122.935 195.033C120.695 199.139 117.498 202.314 113.345 204.559C109.246 206.749 104.328 207.844 98.5906 207.844ZM82.3608 207.844H73.5902V152.821H82.3608V207.844Z" fill="#C4C4C4"/>
<path d="M141.826 207.844H132.974V152.821H141.826V207.844Z" fill="#C4C4C4"/>
<path d="M158.876 207.844H150.024V152.821H158.876V207.844ZM192.483 185.753H152.729V177.869H192.483V185.753ZM193.713 160.787H152.729V152.821H193.713V160.787Z" fill="#C4C4C4"/>
<path d="M209.146 207.844H200.293V152.821H209.146V207.844ZM242.753 185.753H202.998V177.869H242.753V185.753ZM243.982 160.787H202.998V152.821H243.982V160.787Z" fill="#C4C4C4"/>
<path d="M259.416 207.844H250.563V152.821H259.416V207.844ZM294.498 207.844H253.268V199.878H294.498V207.844ZM293.268 184.11H253.268V176.226H293.268V184.11ZM294.498 160.787H253.268V152.821H294.498V160.787Z" fill="#C4C4C4"/>
<path d="M310.246 207.844H301.393V152.821H329.918C334.071 152.821 337.65 153.451 340.656 154.71C343.716 155.969 346.038 157.803 347.623 160.212C349.262 162.621 350.082 165.55 350.082 169C350.082 172.065 349.426 174.693 348.115 176.883C346.858 179.073 345 180.798 342.541 182.057C340.137 183.316 337.213 184.056 333.77 184.275V184.849C335.902 185.397 337.541 186.3 338.689 187.559C339.891 188.764 340.984 190.242 341.967 191.994L351.148 207.844H340.984L332.213 192.651C331.393 191.173 330.492 189.996 329.508 189.12C328.579 188.189 327.404 187.532 325.983 187.149C324.563 186.711 322.677 186.492 320.328 186.492H310.246V207.844ZM310.246 160.787V179.676H329.836C333.497 179.676 336.257 178.964 338.115 177.54C339.973 176.117 340.902 173.681 340.902 170.231C340.902 166.892 339.973 164.483 338.115 163.005C336.257 161.526 333.497 160.787 329.836 160.787H310.246Z" fill="#C4C4C4"/>
<path d="M365.318 207.844H356.465V152.821H365.318V207.844ZM400.4 207.844H359.17V199.878H400.4V207.844ZM399.171 184.11H359.17V176.226H399.171V184.11ZM400.4 160.787H359.17V152.821H400.4V160.787Z" fill="#C4C4C4"/>
<path d="M416.148 207.844H407.295V152.821H416.804L441.394 185.014L448.525 195.279H449.181L448.771 185.342V152.821H457.624V207.844H448.116L423.361 175.734L416.476 166.043H415.82L416.148 175.569V207.844Z" fill="#C4C4C4"/>
<path d="M493.105 207.844H484.335V152.821H493.105V207.844ZM514.663 160.787H462.695V152.821H514.663V160.787Z" fill="#C4C4C4"/>
<path d="M562.027 191.255H538.502V183.289H561.207C565.361 183.289 568.475 182.44 570.552 180.743C572.683 179.046 573.749 176.144 573.749 172.038C573.749 167.987 572.683 165.112 570.552 163.415C568.475 161.663 565.361 160.787 561.207 160.787H538.502V152.821H562.027C566.126 152.821 569.705 153.588 572.765 155.121C575.88 156.599 578.284 158.761 579.978 161.608C581.727 164.455 582.601 167.932 582.601 172.038C582.601 176.09 581.727 179.539 579.978 182.386C578.284 185.233 575.88 187.423 572.765 188.956C569.705 190.489 566.126 191.255 562.027 191.255ZM543.994 207.844H535.142V152.821H543.994V207.844Z" fill="#C4C4C4"/>
<path d="M596.745 207.844H587.893V152.821H616.418C620.571 152.821 624.15 153.451 627.156 154.71C630.216 155.969 632.538 157.803 634.123 160.212C635.762 162.621 636.582 165.55 636.582 169C636.582 172.065 635.926 174.693 634.615 176.883C633.358 179.073 631.5 180.798 629.041 182.057C626.636 183.316 623.713 184.056 620.27 184.275V184.849C622.401 185.397 624.041 186.3 625.188 187.559C626.39 188.764 627.483 190.242 628.467 191.994L637.647 207.844H627.483L618.713 192.651C617.893 191.173 616.991 189.996 616.008 189.12C615.079 188.189 613.904 187.532 612.483 187.149C611.062 186.711 609.177 186.492 606.827 186.492H596.745V207.844ZM596.745 160.787V179.676H616.336C619.997 179.676 622.757 178.964 624.615 177.54C626.472 176.117 627.401 173.681 627.401 170.231C627.401 166.892 626.472 164.483 624.615 163.005C622.757 161.526 619.997 160.787 616.336 160.787H596.745Z" fill="#C4C4C4"/>
<path d="M669.933 208.665C664.195 208.665 659.168 207.515 654.851 205.216C650.588 202.862 647.255 199.577 644.85 195.361C642.501 191.091 641.326 186.081 641.326 180.333C641.326 174.584 642.501 169.602 644.85 165.386C647.255 161.116 650.588 157.831 654.851 155.531C659.168 153.177 664.195 152 669.933 152C675.78 152 680.835 153.177 685.097 155.531C689.359 157.831 692.665 161.116 695.015 165.386C697.419 169.602 698.622 174.584 698.622 180.333C698.622 186.081 697.419 191.091 695.015 195.361C692.665 199.577 689.359 202.862 685.097 205.216C680.835 207.515 675.78 208.665 669.933 208.665ZM669.933 200.124C674.25 200.124 677.829 199.44 680.671 198.071C683.567 196.648 685.725 194.485 687.146 191.583C688.567 188.627 689.277 184.877 689.277 180.333C689.277 175.734 688.567 171.983 687.146 169.082C685.725 166.18 683.567 164.045 680.671 162.676C677.829 161.253 674.25 160.541 669.933 160.541C665.616 160.541 662.009 161.253 659.113 162.676C656.271 164.045 654.14 166.18 652.719 169.082C651.353 171.983 650.67 175.734 650.67 180.333C650.67 184.877 651.353 188.627 652.719 191.583C654.14 194.485 656.271 196.648 659.113 198.071C662.009 199.44 665.616 200.124 669.933 200.124Z" fill="#C4C4C4"/>
<path d="M725.818 208.665C720.299 208.665 715.818 207.762 712.375 205.955C708.987 204.094 706.528 201.548 704.998 198.318C703.468 195.033 702.703 191.228 702.703 186.902V184.357H712.047V186.985C712.047 189.941 712.43 192.405 713.195 194.376C714.014 196.292 715.408 197.743 717.375 198.728C719.397 199.659 722.211 200.124 725.818 200.124C729.424 200.124 732.211 199.659 734.179 198.728C736.2 197.797 737.621 196.401 738.441 194.54C739.315 192.624 739.752 190.242 739.752 187.395V152.821H749.015V187.313C749.015 191.529 748.25 195.252 746.72 198.482C745.19 201.657 742.703 204.148 739.261 205.955C735.873 207.762 731.392 208.665 725.818 208.665Z" fill="#C4C4C4"/>
<path d="M765.725 207.844H756.872V152.821H765.725V207.844ZM800.807 207.844H759.577V199.878H800.807V207.844ZM799.578 184.11H759.577V176.226H799.578V184.11ZM800.807 160.787H759.577V152.821H800.807V160.787Z" fill="#C4C4C4"/>
<path d="M834.424 208.665C828.741 208.665 823.768 207.515 819.506 205.216C815.243 202.862 811.937 199.577 809.587 195.361C807.238 191.091 806.063 186.081 806.063 180.333C806.063 174.584 807.238 169.602 809.587 165.386C811.937 161.116 815.243 157.831 819.506 155.531C823.768 153.177 828.741 152 834.424 152C839.615 152 844.178 152.876 848.113 154.628C852.102 156.325 855.189 158.789 857.375 162.019C859.615 165.194 860.736 169 860.736 173.434V174.502H850.981V173.434C850.981 169.219 849.615 166.016 846.883 163.826C844.205 161.636 840.08 160.541 834.506 160.541C830.189 160.541 826.61 161.253 823.768 162.676C820.981 164.045 818.877 166.18 817.456 169.082C816.09 171.983 815.407 175.734 815.407 180.333C815.407 184.877 816.09 188.627 817.456 191.583C818.877 194.485 820.981 196.648 823.768 198.071C826.61 199.44 830.189 200.124 834.506 200.124C840.08 200.124 844.205 199.029 846.883 196.839C849.615 194.649 850.981 191.447 850.981 187.231V186.163H860.736V187.231C860.736 191.611 859.615 195.416 857.375 198.646C855.189 201.876 852.102 204.367 848.113 206.119C844.178 207.817 839.615 208.665 834.424 208.665Z" fill="#C4C4C4"/>
<path d="M894.553 207.844H885.782V152.821H894.553V207.844ZM916.11 160.787H864.143V152.821H916.11V160.787Z" fill="#C4C4C4"/>
<path d="M944.322 208.665C938.912 208.665 934.349 207.899 930.633 206.366C926.972 204.833 924.213 202.67 922.355 199.878C920.497 197.031 919.568 193.691 919.568 189.859V189.366H928.42V190.68C928.42 192.87 928.912 194.704 929.896 196.182C930.879 197.606 932.519 198.701 934.814 199.467C937.109 200.179 940.278 200.535 944.322 200.535C947.82 200.535 950.606 200.289 952.683 199.796C954.759 199.248 956.235 198.427 957.109 197.332C958.038 196.182 958.503 194.759 958.503 193.062C958.503 190.653 957.738 188.901 956.208 187.806C954.678 186.711 952.191 185.835 948.748 185.178L935.306 182.961C932.246 182.358 929.513 181.482 927.109 180.333C924.704 179.128 922.819 177.54 921.453 175.569C920.142 173.544 919.486 171.025 919.486 168.014C919.486 166.043 919.923 164.1 920.797 162.183C921.672 160.267 923.038 158.542 924.896 157.01C926.754 155.477 929.158 154.272 932.109 153.396C935.114 152.465 938.776 152 943.093 152C948.448 152 952.847 152.821 956.29 154.464C959.732 156.106 962.273 158.351 963.913 161.198C965.607 163.99 966.454 167.193 966.454 170.806V171.299H957.683V170.231C957.683 167.987 957.191 166.125 956.208 164.647C955.224 163.114 953.612 161.992 951.371 161.28C949.131 160.513 946.098 160.13 942.273 160.13C938.94 160.13 936.235 160.404 934.158 160.951C932.136 161.499 930.661 162.32 929.732 163.415C928.803 164.455 928.338 165.824 928.338 167.521C928.338 169.054 928.666 170.314 929.322 171.299C929.978 172.284 930.989 173.078 932.355 173.681C933.721 174.228 935.47 174.748 937.601 175.241L950.962 177.54C954.623 178.197 957.656 179.183 960.06 180.497C962.519 181.811 964.35 183.481 965.552 185.506C966.754 187.532 967.355 189.886 967.355 192.569C967.355 195.361 966.563 197.989 964.978 200.453C963.393 202.917 960.907 204.915 957.519 206.448C954.131 207.926 949.732 208.665 944.322 208.665Z" fill="#C4C4C4"/>
<path d="M1035.72 207.844H1003.83V152.821H1034.57C1038.12 152.821 1041.13 153.341 1043.58 154.382C1046.1 155.422 1048.01 156.955 1049.32 158.98C1050.69 161.006 1051.37 163.47 1051.37 166.372C1051.37 169.602 1050.42 172.339 1048.5 174.584C1046.64 176.829 1043.61 178.197 1039.4 178.69V179.265C1044.1 179.812 1047.6 181.291 1049.9 183.7C1052.19 186.054 1053.34 189.038 1053.34 192.651C1053.34 195.772 1052.66 198.482 1051.29 200.781C1049.92 203.081 1047.93 204.833 1045.31 206.037C1042.68 207.242 1039.49 207.844 1035.72 207.844ZM1012.6 183.207V199.878H1034.73C1038.01 199.878 1040.44 199.221 1042.03 197.907C1043.67 196.538 1044.49 194.376 1044.49 191.419C1044.49 188.518 1043.67 186.437 1042.03 185.178C1040.44 183.864 1038.01 183.207 1034.73 183.207H1012.6ZM1012.6 160.787V175.898H1033.34C1036.45 175.898 1038.78 175.296 1040.31 174.091C1041.84 172.832 1042.6 170.916 1042.6 168.343C1042.6 165.769 1041.86 163.881 1040.39 162.676C1038.91 161.417 1036.64 160.787 1033.58 160.787H1012.6Z" fill="#C4C4C4"/>
<path d="M1084.48 208.665C1079.02 208.665 1074.37 207.734 1070.55 205.873C1066.72 204.011 1063.8 201.329 1061.78 197.825C1059.76 194.266 1058.74 189.996 1058.74 185.014V152.821H1067.51V184.439C1067.51 188.162 1068.09 191.173 1069.24 193.472C1070.44 195.772 1072.27 197.469 1074.73 198.564C1077.24 199.604 1080.49 200.124 1084.48 200.124C1088.53 200.124 1091.78 199.604 1094.24 198.564C1096.75 197.469 1098.58 195.772 1099.73 193.472C1100.88 191.173 1101.45 188.162 1101.45 184.439V152.821H1110.3V185.014C1110.3 189.996 1109.29 194.266 1107.27 197.825C1105.25 201.329 1102.32 204.011 1098.5 205.873C1094.67 207.734 1090 208.665 1084.48 208.665Z" fill="#C4C4C4"/>
<path d="M1145.44 207.844H1136.67V152.821H1145.44V207.844ZM1167 160.787H1115.03V152.821H1167V160.787Z" fill="#C4C4C4"/>
<path d="M78.8362 308.511H69L93.5085 253.489H105.968L130.476 308.511H120.476L103.181 269.503L99.984 261.701H99.3283L96.1315 269.503L78.8362 308.511ZM117.771 294.222H81.1313V286.256H117.771V294.222Z" fill="#C4C4C4"/>
<path d="M143.427 308.511H134.575V253.489H143.427V308.511ZM177.28 308.511H137.198V300.545H177.28V308.511Z" fill="#C4C4C4"/>
<path d="M191.856 308.511H183.003V253.489H191.856V308.511ZM225.709 308.511H185.626V300.545H225.709V308.511Z" fill="#C4C4C4"/>
<path d="M309.478 308.511H296.445L281.937 253.489H291.773L300.707 288.309L303.166 299.971H303.822L306.773 288.309L317.839 253.489H330.708L342.511 288.309L345.626 299.971H346.282L348.577 288.309L356.774 253.489H366.446L352.675 308.511H339.642L328.577 276.483L324.56 262.358H323.822L319.888 276.483L309.478 308.511Z" fill="#C4C4C4"/>
<path d="M380.511 308.511H371.659V253.489H380.511V308.511Z" fill="#C4C4C4"/>
<path d="M416.004 308.511H407.233V253.489H416.004V308.511ZM437.562 261.455H385.594V253.489H437.562V261.455Z" fill="#C4C4C4"/>
<path d="M492.659 308.511H483.889V253.489H492.659V308.511ZM451.593 308.511H442.74V253.489H451.593V308.511ZM488.233 284.778H445.609V276.812H488.233V284.778Z" fill="#C4C4C4"/>
<path d="M577.424 309.333C572.014 309.333 567.451 308.566 563.735 307.033C560.074 305.5 557.314 303.338 555.456 300.545C553.598 297.698 552.669 294.359 552.669 290.526V290.034H561.522V291.348C561.522 293.538 562.013 295.372 562.997 296.85C563.981 298.273 565.62 299.368 567.915 300.135C570.21 300.847 573.38 301.202 577.424 301.202C580.921 301.202 583.708 300.956 585.784 300.463C587.861 299.916 589.336 299.095 590.211 298C591.14 296.85 591.604 295.426 591.604 293.729C591.604 291.32 590.839 289.568 589.309 288.473C587.779 287.378 585.292 286.502 581.85 285.845L568.407 283.628C565.347 283.026 562.615 282.15 560.21 281C557.806 279.796 555.921 278.208 554.554 276.237C553.243 274.211 552.587 271.693 552.587 268.682C552.587 266.711 553.024 264.767 553.899 262.851C554.773 260.935 556.139 259.21 557.997 257.677C559.855 256.144 562.259 254.939 565.21 254.064C568.216 253.133 571.877 252.667 576.194 252.667C581.549 252.667 585.948 253.489 589.391 255.131C592.834 256.774 595.375 259.018 597.014 261.865C598.708 264.657 599.555 267.86 599.555 271.474V271.966H590.784V270.899C590.784 268.654 590.293 266.793 589.309 265.314C588.325 263.781 586.713 262.659 584.473 261.947C582.232 261.181 579.2 260.798 575.374 260.798C572.041 260.798 569.336 261.071 567.259 261.619C565.238 262.166 563.762 262.988 562.833 264.083C561.904 265.123 561.44 266.492 561.44 268.189C561.44 269.722 561.768 270.981 562.423 271.966C563.079 272.952 564.09 273.746 565.456 274.348C566.822 274.895 568.571 275.416 570.702 275.908L584.063 278.208C587.724 278.865 590.757 279.85 593.161 281.164C595.62 282.478 597.451 284.148 598.653 286.174C599.856 288.199 600.457 290.554 600.457 293.236C600.457 296.029 599.664 298.657 598.08 301.12C596.495 303.584 594.008 305.582 590.62 307.115C587.232 308.593 582.833 309.333 577.424 309.333Z" fill="#C4C4C4"/>
<path d="M633.709 309.333C627.971 309.333 622.944 308.183 618.627 305.883C614.364 303.529 611.031 300.244 608.627 296.029C606.277 291.758 605.102 286.749 605.102 281C605.102 275.251 606.277 270.269 608.627 266.054C611.031 261.783 614.364 258.498 618.627 256.199C622.944 253.845 627.971 252.667 633.709 252.667C639.556 252.667 644.611 253.845 648.873 256.199C653.135 258.498 656.441 261.783 658.791 266.054C661.196 270.269 662.398 275.251 662.398 281C662.398 286.749 661.196 291.758 658.791 296.029C656.441 300.244 653.135 303.529 648.873 305.883C644.611 308.183 639.556 309.333 633.709 309.333ZM633.709 300.792C638.026 300.792 641.605 300.107 644.447 298.739C647.343 297.315 649.501 295.153 650.922 292.251C652.343 289.294 653.053 285.544 653.053 281C653.053 276.401 652.343 272.651 650.922 269.749C649.501 266.847 647.343 264.712 644.447 263.343C641.605 261.92 638.026 261.208 633.709 261.208C629.392 261.208 625.785 261.92 622.889 263.343C620.047 264.712 617.916 266.847 616.495 269.749C615.129 272.651 614.446 276.401 614.446 281C614.446 285.544 615.129 289.294 616.495 292.251C617.916 295.153 620.047 297.315 622.889 298.739C625.785 300.107 629.392 300.792 633.709 300.792Z" fill="#C4C4C4"/>
<path d="M677.791 308.511H668.938V253.489H680.987L696.807 285.353L701.807 296.768H702.463L707.299 285.353L722.955 253.489H735.004V308.511H726.152V274.759L726.48 266.793H725.824L722.463 274.759L707.299 305.226H696.643L681.479 274.759L678.118 266.793H677.463L677.791 274.759V308.511Z" fill="#C4C4C4"/>
<path d="M752.074 308.511H743.222V253.489H752.074V308.511ZM787.157 308.511H745.927V300.545H787.157V308.511ZM785.927 284.778H745.927V276.894H785.927V284.778ZM787.157 261.455H745.927V253.489H787.157V261.455Z" fill="#C4C4C4"/>
<path d="M821.347 308.511H812.577V253.489H821.347V308.511ZM842.905 261.455H790.937V253.489H842.905V261.455Z" fill="#C4C4C4"/>
<path d="M898.002 308.511H889.232V253.489H898.002V308.511ZM856.936 308.511H848.083V253.489H856.936V308.511ZM893.576 284.778H850.952V276.812H893.576V284.778Z" fill="#C4C4C4"/>
<path d="M915.13 308.511H906.278V253.489H915.13V308.511Z" fill="#C4C4C4"/>
<path d="M932.18 308.511H923.328V253.489H932.836L957.427 285.681L964.558 295.946H965.214L964.804 286.01V253.489H973.656V308.511H964.148L939.394 276.401L932.508 266.711H931.853L932.18 276.237V308.511Z" fill="#C4C4C4"/>
<path d="M1007.09 309.333C1001.73 309.333 997.034 308.183 992.99 305.883C988.946 303.529 985.804 300.244 983.564 296.029C981.323 291.758 980.203 286.749 980.203 281C980.203 275.251 981.405 270.269 983.81 266.054C986.214 261.783 989.602 258.498 993.974 256.199C998.345 253.845 1003.45 252.667 1009.3 252.667C1014.49 252.667 1019.06 253.516 1022.99 255.213C1026.98 256.856 1030.09 259.21 1032.33 262.276C1034.58 265.342 1035.7 269.01 1035.7 273.28V273.937H1025.94V273.28C1025.94 269.338 1024.55 266.355 1021.76 264.329C1018.97 262.248 1014.74 261.208 1009.06 261.208C1004.63 261.208 1000.97 261.92 998.072 263.343C995.231 264.712 993.099 266.847 991.679 269.749C990.258 272.651 989.547 276.401 989.547 281C989.547 285.544 990.23 289.294 991.597 292.251C993.017 295.153 995.121 297.315 997.908 298.739C1000.75 300.107 1004.33 300.792 1008.65 300.792C1013.02 300.792 1016.54 300.381 1019.22 299.56C1021.9 298.684 1023.84 297.288 1025.04 295.372C1026.3 293.455 1026.92 290.964 1026.92 287.898V286.092L1035.7 286.338V287.652L1028.4 296.603H1027.09C1026.32 299.286 1025.04 301.586 1023.24 303.502C1021.49 305.418 1019.25 306.869 1016.51 307.854C1013.84 308.84 1010.7 309.333 1007.09 309.333ZM1035.7 308.511H1027.66V294.55L1026.92 293.401V281.493H1035.7V308.511ZM1035.7 287.159H1006.6V280.425H1035.7V287.159Z" fill="#C4C4C4"/>
<path d="M1105.47 308.511H1096.61V253.489H1105.47V308.511Z" fill="#C4C4C4"/>
<path d="M1122.52 308.511H1113.66V253.489H1123.17L1147.76 285.681L1154.89 295.946H1155.55L1155.14 286.01V253.489H1163.99V308.511H1154.48L1129.73 276.401L1122.84 266.711H1122.19L1122.52 276.237V308.511Z" fill="#C4C4C4"/>
<path d="M99.8201 410C94.1369 410 89.1642 408.85 84.9018 406.551C80.6395 404.197 77.3334 400.912 74.9837 396.696C72.6339 392.426 71.459 387.416 71.459 381.667C71.459 375.919 72.6339 370.937 74.9837 366.721C77.3334 362.451 80.6395 359.166 84.9018 356.866C89.1642 354.512 94.1369 353.335 99.8201 353.335C105.011 353.335 109.574 354.211 113.509 355.963C117.498 357.66 120.585 360.124 122.771 363.354C125.012 366.529 126.132 370.334 126.132 374.769V375.837H116.378V374.769C116.378 370.553 115.012 367.351 112.279 365.161C109.602 362.971 105.476 361.876 99.902 361.876C95.5851 361.876 92.0058 362.587 89.1642 364.011C86.3773 365.38 84.2734 367.515 82.8526 370.417C81.4865 373.318 80.8034 377.069 80.8034 381.667C80.8034 386.212 81.4865 389.962 82.8526 392.918C84.2734 395.82 86.3773 397.983 89.1642 399.406C92.0058 400.775 95.5851 401.459 99.902 401.459C105.476 401.459 109.602 400.364 112.279 398.174C115.012 395.984 116.378 392.781 116.378 388.566V387.498H126.132V388.566C126.132 392.946 125.012 396.751 122.771 399.981C120.585 403.211 117.498 405.702 113.509 407.454C109.574 409.151 105.011 410 99.8201 410Z" fill="#C4C4C4"/>
<path d="M159.621 410C153.883 410 148.856 408.85 144.539 406.551C140.277 404.197 136.943 400.912 134.539 396.696C132.189 392.426 131.014 387.416 131.014 381.667C131.014 375.919 132.189 370.937 134.539 366.721C136.943 362.451 140.277 359.166 144.539 356.866C148.856 354.512 153.883 353.335 159.621 353.335C165.468 353.335 170.523 354.512 174.785 356.866C179.048 359.166 182.354 362.451 184.703 366.721C187.108 370.937 188.31 375.919 188.31 381.667C188.31 387.416 187.108 392.426 184.703 396.696C182.354 400.912 179.048 404.197 174.785 406.551C170.523 408.85 165.468 410 159.621 410ZM159.621 401.459C163.938 401.459 167.517 400.775 170.359 399.406C173.255 397.983 175.414 395.82 176.834 392.918C178.255 389.962 178.966 386.212 178.966 381.667C178.966 377.069 178.255 373.318 176.834 370.417C175.414 367.515 173.255 365.38 170.359 364.011C167.517 362.587 163.938 361.876 159.621 361.876C155.304 361.876 151.697 362.587 148.801 364.011C145.96 365.38 143.829 367.515 142.408 370.417C141.042 373.318 140.359 377.069 140.359 381.667C140.359 386.212 141.042 389.962 142.408 392.918C143.829 395.82 145.96 397.983 148.801 399.406C151.697 400.775 155.304 401.459 159.621 401.459Z" fill="#C4C4C4"/>
<path d="M203.703 409.179H194.85V354.156H206.899L222.719 386.02L227.719 397.435H228.375L233.211 386.02L248.867 354.156H260.917V409.179H252.064V375.426L252.392 367.46H251.736L248.375 375.426L233.211 405.894H222.555L207.391 375.426L204.031 367.46H203.375L203.703 375.426V409.179Z" fill="#C4C4C4"/>
<path d="M277.986 409.179H269.134V354.156H281.183L297.003 386.02L302.003 397.435H302.659L307.495 386.02L323.151 354.156H335.2V409.179H326.348V375.426L326.676 367.46H326.02L322.659 375.426L307.495 405.894H296.839L281.675 375.426L278.314 367.46H277.659L277.986 375.426V409.179Z" fill="#C4C4C4"/>
<path d="M370.385 410C364.648 410 359.62 408.85 355.303 406.551C351.041 404.197 347.707 400.912 345.303 396.696C342.953 392.426 341.778 387.416 341.778 381.667C341.778 375.919 342.953 370.937 345.303 366.721C347.707 362.451 351.041 359.166 355.303 356.866C359.62 354.512 364.648 353.335 370.385 353.335C376.232 353.335 381.287 354.512 385.549 356.866C389.812 359.166 393.118 362.451 395.468 366.721C397.872 370.937 399.074 375.919 399.074 381.667C399.074 387.416 397.872 392.426 395.468 396.696C393.118 400.912 389.812 404.197 385.549 406.551C381.287 408.85 376.232 410 370.385 410ZM370.385 401.459C374.702 401.459 378.282 400.775 381.123 399.406C384.019 397.983 386.178 395.82 387.599 392.918C389.019 389.962 389.73 386.212 389.73 381.667C389.73 377.069 389.019 373.318 387.599 370.417C386.178 367.515 384.019 365.38 381.123 364.011C378.282 362.587 374.702 361.876 370.385 361.876C366.068 361.876 362.462 362.587 359.565 364.011C356.724 365.38 354.593 367.515 353.172 370.417C351.806 373.318 351.123 377.069 351.123 381.667C351.123 386.212 351.806 389.962 353.172 392.918C354.593 395.82 356.724 397.983 359.565 399.406C362.462 400.775 366.068 401.459 370.385 401.459Z" fill="#C4C4C4"/>
<path d="M414.467 409.179H405.614V354.156H415.123L439.713 386.348L446.844 396.614H447.5L447.09 386.677V354.156H455.943V409.179H446.435L421.68 377.069L414.795 367.378H414.139L414.467 376.904V409.179Z" fill="#C4C4C4"/>
<path d="M505.023 392.59H481.498V384.624H504.203C508.356 384.624 511.471 383.775 513.547 382.078C515.679 380.381 516.744 377.479 516.744 373.373C516.744 369.322 515.679 366.447 513.547 364.75C511.471 362.998 508.356 362.122 504.203 362.122H481.498V354.156H505.023C509.121 354.156 512.7 354.923 515.761 356.456C518.875 357.934 521.28 360.096 522.974 362.943C524.722 365.79 525.597 369.267 525.597 373.373C525.597 377.424 524.722 380.874 522.974 383.721C521.28 386.568 518.875 388.758 515.761 390.29C512.7 391.823 509.121 392.59 505.023 392.59ZM486.99 409.179H478.137V354.156H486.99V409.179Z" fill="#D5FF40"/>
<path d="M536.626 409.179H526.79L551.298 354.156H563.757L588.266 409.179H578.266L560.971 370.17L557.774 362.369H557.118L553.921 370.17L536.626 409.179ZM575.561 394.889H538.921V386.923H575.561V394.889Z" fill="#D5FF40"/>
<path d="M615.397 410C609.988 410 605.425 409.234 601.709 407.701C598.048 406.168 595.288 404.005 593.43 401.213C591.572 398.366 590.643 395.026 590.643 391.194V390.701H599.496V392.015C599.496 394.205 599.987 396.039 600.971 397.517C601.955 398.941 603.594 400.036 605.889 400.802C608.184 401.514 611.354 401.87 615.397 401.87C618.895 401.87 621.682 401.624 623.758 401.131C625.835 400.583 627.31 399.762 628.185 398.667C629.114 397.517 629.578 396.094 629.578 394.397C629.578 391.988 628.813 390.236 627.283 389.141C625.753 388.046 623.266 387.17 619.824 386.513L606.381 384.295C603.321 383.693 600.589 382.817 598.184 381.668C595.78 380.463 593.894 378.875 592.528 376.904C591.217 374.879 590.561 372.36 590.561 369.349C590.561 367.378 590.998 365.434 591.873 363.518C592.747 361.602 594.113 359.877 595.971 358.344C597.829 356.811 600.233 355.607 603.184 354.731C606.19 353.8 609.851 353.335 614.168 353.335C619.523 353.335 623.922 354.156 627.365 355.799C630.808 357.441 633.349 359.686 634.988 362.533C636.682 365.325 637.529 368.528 637.529 372.141V372.634H628.758V371.566C628.758 369.322 628.267 367.46 627.283 365.982C626.299 364.449 624.687 363.327 622.447 362.615C620.206 361.848 617.173 361.465 613.348 361.465C610.015 361.465 607.31 361.739 605.233 362.286C603.212 362.834 601.736 363.655 600.807 364.75C599.878 365.79 599.414 367.159 599.414 368.856C599.414 370.389 599.742 371.648 600.397 372.634C601.053 373.619 602.064 374.413 603.43 375.016C604.796 375.563 606.545 376.083 608.676 376.576L622.037 378.875C625.698 379.532 628.731 380.518 631.135 381.832C633.594 383.146 635.425 384.816 636.627 386.841C637.829 388.867 638.431 391.221 638.431 393.904C638.431 396.696 637.638 399.324 636.053 401.788C634.469 404.251 631.982 406.25 628.594 407.783C625.206 409.261 620.807 410 615.397 410Z" fill="#D5FF40"/>
<path d="M667.748 410C662.338 410 657.776 409.234 654.06 407.701C650.398 406.168 647.639 404.005 645.781 401.213C643.923 398.366 642.994 395.026 642.994 391.194V390.701H651.847V392.015C651.847 394.205 652.338 396.039 653.322 397.517C654.306 398.941 655.945 400.036 658.24 400.802C660.535 401.514 663.705 401.87 667.748 401.87C671.246 401.87 674.033 401.624 676.109 401.131C678.186 400.583 679.661 399.762 680.535 398.667C681.464 397.517 681.929 396.094 681.929 394.397C681.929 391.988 681.164 390.236 679.634 389.141C678.104 388.046 675.617 387.17 672.175 386.513L658.732 384.295C655.672 383.693 652.939 382.817 650.535 381.668C648.131 380.463 646.245 378.875 644.879 376.904C643.568 374.879 642.912 372.36 642.912 369.349C642.912 367.378 643.349 365.434 644.223 363.518C645.098 361.602 646.464 359.877 648.322 358.344C650.18 356.811 652.584 355.607 655.535 354.731C658.541 353.8 662.202 353.335 666.519 353.335C671.874 353.335 676.273 354.156 679.716 355.799C683.158 357.441 685.699 359.686 687.339 362.533C689.033 365.325 689.88 368.528 689.88 372.141V372.634H681.109V371.566C681.109 369.322 680.617 367.46 679.634 365.982C678.65 364.449 677.038 363.327 674.798 362.615C672.557 361.848 669.524 361.465 665.699 361.465C662.366 361.465 659.661 361.739 657.584 362.286C655.562 362.834 654.087 363.655 653.158 364.75C652.229 365.79 651.765 367.159 651.765 368.856C651.765 370.389 652.092 371.648 652.748 372.634C653.404 373.619 654.415 374.413 655.781 375.016C657.147 375.563 658.896 376.083 661.027 376.576L674.388 378.875C678.049 379.532 681.082 380.518 683.486 381.832C685.945 383.146 687.776 384.816 688.978 386.841C690.18 388.867 690.781 391.221 690.781 393.904C690.781 396.696 689.989 399.324 688.404 401.788C686.82 404.251 684.333 406.25 680.945 407.783C677.557 409.261 673.158 410 667.748 410Z" fill="#D5FF40"/>
<path d="M705.919 409.179H697.066V354.156H705.919V409.179Z" fill="#D5FF40"/>
<path d="M741.084 410C735.346 410 730.319 408.85 726.002 406.551C721.739 404.197 718.406 400.912 716.001 396.696C713.652 392.426 712.477 387.416 712.477 381.668C712.477 375.919 713.652 370.937 716.001 366.721C718.406 362.451 721.739 359.166 726.002 356.866C730.319 354.512 735.346 353.335 741.084 353.335C746.931 353.335 751.986 354.512 756.248 356.866C760.51 359.166 763.816 362.451 766.166 366.721C768.57 370.937 769.773 375.919 769.773 381.668C769.773 387.416 768.57 392.426 766.166 396.696C763.816 400.912 760.51 404.197 756.248 406.551C751.986 408.85 746.931 410 741.084 410ZM741.084 401.459C745.401 401.459 748.98 400.775 751.822 399.406C754.718 397.983 756.876 395.82 758.297 392.918C759.718 389.962 760.428 386.212 760.428 381.668C760.428 377.069 759.718 373.318 758.297 370.417C756.876 367.515 754.718 365.38 751.822 364.011C748.98 362.588 745.401 361.876 741.084 361.876C736.767 361.876 733.16 362.588 730.264 364.011C727.422 365.38 725.291 367.515 723.87 370.417C722.504 373.318 721.821 377.069 721.821 381.668C721.821 386.212 722.504 389.962 723.87 392.918C725.291 395.82 727.422 397.983 730.264 399.406C733.16 400.775 736.767 401.459 741.084 401.459Z" fill="#D5FF40"/>
<path d="M785.165 409.179H776.313V354.156H785.821L810.412 386.349L817.543 396.614H818.199L817.789 386.677V354.156H826.641V409.179H817.133L792.379 377.069L785.493 367.378H784.837L785.165 376.904V409.179Z" fill="#D5FF40"/>
</svg>
