<svg width="457" height="388" viewBox="0 0 457 388" fill="none" xmlns="http://www.w3.org/2000/svg">
<mask id="path-1-inside-1_1_310" fill="white">
<path fill-rule="evenodd" clip-rule="evenodd" d="M53.077 359.408L-44.9615 529.215L58.9616 589.215L157 419.408L255.038 589.215L358.961 529.215L260.923 359.408H457V239.408H260.923L358.962 69.6001L255.039 9.6001L157 179.408L58.9615 9.60011L-44.9616 69.6001L53.0769 239.408H-143V359.408H53.077Z"/>
</mask>
<path d="M-44.9615 529.215L-45.8275 528.715L-46.3275 529.581L-45.4615 530.081L-44.9615 529.215ZM53.077 359.408L53.943 359.908L54.809 358.408H53.077V359.408ZM58.9616 589.215L58.4616 590.081L59.3276 590.581L59.8276 589.715L58.9616 589.215ZM157 419.408L157.866 418.908L157 417.408L156.134 418.908L157 419.408ZM255.038 589.215L254.172 589.715L254.672 590.581L255.538 590.081L255.038 589.215ZM358.961 529.215L359.461 530.081L360.328 529.581L359.828 528.715L358.961 529.215ZM260.923 359.408V358.408H259.191L260.057 359.908L260.923 359.408ZM457 359.408V360.408H458V359.408H457ZM457 239.408H458V238.408H457V239.408ZM260.923 239.408L260.057 238.908L259.191 240.408H260.923V239.408ZM358.962 69.6001L359.828 70.1001L360.328 69.2341L359.462 68.7341L358.962 69.6001ZM255.039 9.6001L255.539 8.73407L254.672 8.23407L254.172 9.1001L255.039 9.6001ZM157 179.408L156.134 179.908L157 181.408L157.866 179.908L157 179.408ZM58.9615 9.60011L59.8275 9.10011L59.3275 8.23409L58.4615 8.73409L58.9615 9.60011ZM-44.9616 69.6001L-45.4616 68.7341L-46.3276 69.2341L-45.8276 70.1001L-44.9616 69.6001ZM53.0769 239.408V240.408H54.809L53.9429 238.908L53.0769 239.408ZM-143 239.408V238.408H-144V239.408H-143ZM-143 359.408H-144V360.408H-143V359.408ZM-44.0955 529.715L53.943 359.908L52.2109 358.908L-45.8275 528.715L-44.0955 529.715ZM59.4616 588.349L-44.4615 528.349L-45.4615 530.081L58.4616 590.081L59.4616 588.349ZM156.134 418.908L58.0955 588.715L59.8276 589.715L157.866 419.908L156.134 418.908ZM156.134 419.908L254.172 589.715L255.904 588.715L157.866 418.908L156.134 419.908ZM255.538 590.081L359.461 530.081L358.461 528.349L254.538 588.349L255.538 590.081ZM359.828 528.715L261.789 358.908L260.057 359.908L358.095 529.715L359.828 528.715ZM260.923 360.408H457V358.408H260.923V360.408ZM458 359.408V239.408H456V359.408H458ZM457 238.408H260.923V240.408H457V238.408ZM358.096 69.1001L260.057 238.908L261.789 239.908L359.828 70.1001L358.096 69.1001ZM254.539 10.4661L358.462 70.4661L359.462 68.7341L255.539 8.73407L254.539 10.4661ZM157.866 179.908L255.905 10.1001L254.172 9.1001L156.134 178.908L157.866 179.908ZM157.866 178.908L59.8275 9.10011L58.0955 10.1001L156.134 179.908L157.866 178.908ZM58.4615 8.73409L-45.4616 68.7341L-44.4616 70.4661L59.4615 10.4661L58.4615 8.73409ZM-45.8276 70.1001L52.2109 239.908L53.9429 238.908L-44.0955 69.1001L-45.8276 70.1001ZM53.0769 238.408H-143V240.408H53.0769V238.408ZM-144 239.408V359.408H-142V239.408H-144ZM-143 360.408H53.077V358.408H-143V360.408Z" fill="#236BFE" mask="url(#path-1-inside-1_1_310)"/>
</svg>
