<svg width="457" height="202" viewBox="0 0 457 202" fill="none" xmlns="http://www.w3.org/2000/svg">
<mask id="path-1-inside-1_17_99" fill="white">
<path fill-rule="evenodd" clip-rule="evenodd" d="M53.077 -28.5923L-44.9615 141.215L58.9616 201.215L157 31.4078L255.038 201.215L358.961 141.215L260.923 -28.5923H457V-148.592H260.923L358.962 -318.4L255.039 -378.4L157 -208.592L58.9615 -378.4L-44.9616 -318.4L53.0769 -148.592H-143V-28.5923H53.077Z"/>
</mask>
<path d="M-44.9615 141.215L-45.8275 140.715L-46.3275 141.581L-45.4615 142.081L-44.9615 141.215ZM53.077 -28.5923L53.943 -28.0923L54.809 -29.5923H53.077V-28.5923ZM58.9616 201.215L58.4616 202.081L59.3276 202.581L59.8276 201.715L58.9616 201.215ZM157 31.4078L157.866 30.9078L157 29.4078L156.134 30.9078L157 31.4078ZM255.038 201.215L254.172 201.715L254.672 202.581L255.538 202.081L255.038 201.215ZM358.961 141.215L359.461 142.081L360.328 141.581L359.828 140.715L358.961 141.215ZM260.923 -28.5923V-29.5923H259.191L260.057 -28.0923L260.923 -28.5923ZM457 -28.5923V-27.5923H458V-28.5923H457ZM457 -148.592H458V-149.592H457V-148.592ZM260.923 -148.592L260.057 -149.092L259.191 -147.592H260.923V-148.592ZM358.962 -318.4L359.828 -317.9L360.328 -318.766L359.462 -319.266L358.962 -318.4ZM255.039 -378.4L255.539 -379.266L254.672 -379.766L254.172 -378.9L255.039 -378.4ZM157 -208.592L156.134 -208.092L157 -206.592L157.866 -208.092L157 -208.592ZM58.9615 -378.4L59.8275 -378.9L59.3275 -379.766L58.4615 -379.266L58.9615 -378.4ZM-44.9616 -318.4L-45.4616 -319.266L-46.3276 -318.766L-45.8276 -317.9L-44.9616 -318.4ZM53.0769 -148.592V-147.592H54.809L53.9429 -149.092L53.0769 -148.592ZM-143 -148.592V-149.592H-144V-148.592H-143ZM-143 -28.5923H-144V-27.5923H-143V-28.5923ZM-44.0955 141.715L53.943 -28.0923L52.2109 -29.0923L-45.8275 140.715L-44.0955 141.715ZM59.4616 200.349L-44.4615 140.349L-45.4615 142.081L58.4616 202.081L59.4616 200.349ZM156.134 30.9078L58.0955 200.715L59.8276 201.715L157.866 31.9078L156.134 30.9078ZM156.134 31.9078L254.172 201.715L255.904 200.715L157.866 30.9078L156.134 31.9078ZM255.538 202.081L359.461 142.081L358.461 140.349L254.538 200.349L255.538 202.081ZM359.828 140.715L261.789 -29.0923L260.057 -28.0923L358.095 141.715L359.828 140.715ZM260.923 -27.5923H457V-29.5923H260.923V-27.5923ZM458 -28.5923V-148.592H456V-28.5923H458ZM457 -149.592H260.923V-147.592H457V-149.592ZM358.096 -318.9L260.057 -149.092L261.789 -148.092L359.828 -317.9L358.096 -318.9ZM254.539 -377.534L358.462 -317.534L359.462 -319.266L255.539 -379.266L254.539 -377.534ZM157.866 -208.092L255.905 -377.9L254.172 -378.9L156.134 -209.092L157.866 -208.092ZM157.866 -209.092L59.8275 -378.9L58.0955 -377.9L156.134 -208.092L157.866 -209.092ZM58.4615 -379.266L-45.4616 -319.266L-44.4616 -317.534L59.4615 -377.534L58.4615 -379.266ZM-45.8276 -317.9L52.2109 -148.092L53.9429 -149.092L-44.0955 -318.9L-45.8276 -317.9ZM53.0769 -149.592H-143V-147.592H53.0769V-149.592ZM-144 -148.592V-28.5923H-142V-148.592H-144ZM-143 -27.5923H53.077V-29.5923H-143V-27.5923Z" fill="white" mask="url(#path-1-inside-1_17_99)"/>
</svg>
