<svg width="119" height="44" viewBox="0 0 119 44" fill="none" xmlns="http://www.w3.org/2000/svg">
<path d="M21.2118 21.26L13.2517 0.19434C13.2302 0.137329 13.1919 0.0881929 13.1417 0.0534757C13.0915 0.0187584 13.0319 0.00010523 12.9708 0H8.28505C8.21634 0.000417191 8.14938 0.0216281 8.09303 0.0608261C8.03667 0.100024 7.99358 0.155361 7.96945 0.219515L0.0172635 21.26C0.00195251 21.3005 -0.00328624 21.344 0.00199644 21.387C0.00727912 21.4299 0.0229256 21.4709 0.0475944 21.5065C0.0722631 21.5421 0.105218 21.5712 0.143634 21.5913C0.18205 21.6114 0.22478 21.6219 0.268161 21.6219H5.65694C5.71307 21.622 5.7678 21.6045 5.8133 21.5717C5.85879 21.5389 5.89271 21.4926 5.9102 21.4394L7.05107 17.9901C7.06901 17.936 7.1036 17.8889 7.14993 17.8556C7.19625 17.8222 7.25195 17.8043 7.30907 17.8044H13.9208C13.9773 17.8044 14.0324 17.8222 14.0781 17.8553C14.1239 17.8883 14.158 17.935 14.1756 17.9885L15.3031 21.3985C15.3247 21.4637 15.3663 21.5205 15.4221 21.5607C15.4779 21.601 15.5451 21.6227 15.6139 21.6227H20.9593C21.0029 21.623 21.046 21.6127 21.0847 21.5926C21.1234 21.5726 21.1566 21.5435 21.1815 21.5077C21.2063 21.472 21.2221 21.4308 21.2274 21.3876C21.2327 21.3444 21.2273 21.3006 21.2118 21.26ZM12.2805 13.392H8.93912C8.89711 13.392 8.85571 13.3821 8.81831 13.363C8.7809 13.3439 8.74856 13.3163 8.72393 13.2824C8.69929 13.2485 8.68307 13.2092 8.67659 13.1678C8.67011 13.1264 8.67356 13.0841 8.68664 13.0443L10.3538 8.00249C10.3719 7.94777 10.4068 7.90014 10.4536 7.86637C10.5004 7.8326 10.5568 7.81442 10.6145 7.81442C10.6723 7.81442 10.7286 7.8326 10.7754 7.86637C10.8223 7.90014 10.8572 7.94777 10.8753 8.00249L12.5393 13.038C12.552 13.0785 12.555 13.1214 12.548 13.1633C12.5411 13.2051 12.5244 13.2448 12.4993 13.2791C12.4743 13.3133 12.4415 13.3413 12.4036 13.3606C12.3657 13.38 12.3238 13.3902 12.2813 13.3905L12.2805 13.392ZM26.6905 0.0668769H21.8532C21.8189 0.0667733 21.7848 0.0734345 21.7531 0.0864759C21.7213 0.0995173 21.6924 0.118685 21.6681 0.142878C21.6437 0.167071 21.6244 0.195815 21.6113 0.227463C21.5981 0.259111 21.5913 0.293041 21.5913 0.327307V21.2765C21.5913 21.3108 21.5981 21.3448 21.6112 21.3765C21.6244 21.4082 21.6437 21.437 21.668 21.4612C21.6923 21.4855 21.7212 21.5047 21.753 21.5178C21.7848 21.531 21.8188 21.5377 21.8532 21.5377H26.6905C26.7599 21.5375 26.8263 21.5099 26.8752 21.4609C26.9242 21.412 26.9517 21.3457 26.9517 21.2765V0.327307C26.9517 0.258237 26.9242 0.191997 26.8752 0.143157C26.8262 0.0943171 26.7598 0.0668769 26.6905 0.0668769V0.0668769ZM37.9967 4.94501C36.4852 4.94327 34.9989 5.33169 33.6825 6.07248C33.6627 6.08418 33.6401 6.09042 33.6171 6.09057C33.594 6.09071 33.5714 6.08476 33.5514 6.07332C33.5314 6.06188 33.5149 6.04537 33.5034 6.02545C33.4919 6.00554 33.4859 5.98294 33.4861 5.95997V0.319437C33.4861 0.250367 33.4585 0.184127 33.4096 0.135287C33.3606 0.0864475 33.2942 0.0590102 33.2249 0.0590102H28.6488C28.6144 0.0589067 28.5804 0.0655648 28.5486 0.0786063C28.5168 0.0916477 28.4879 0.110815 28.4636 0.135008C28.4393 0.159202 28.42 0.187948 28.4068 0.219596C28.3936 0.251244 28.3868 0.285171 28.3868 0.319437V21.2686C28.3868 21.3379 28.4144 21.4044 28.4636 21.4534C28.5127 21.5023 28.5793 21.5299 28.6488 21.5299H33.2249C33.2593 21.5299 33.2933 21.5231 33.325 21.51C33.3568 21.4968 33.3856 21.4776 33.4098 21.4533C33.4341 21.429 33.4533 21.4002 33.4664 21.3685C33.4795 21.3369 33.4862 21.3029 33.4861 21.2686V21.0279C33.4862 21.005 33.4923 20.9826 33.5038 20.9628C33.5154 20.943 33.5319 20.9266 33.5518 20.9152C33.5717 20.9038 33.5942 20.8978 33.6172 20.8979C33.6401 20.8979 33.6626 20.9039 33.6825 20.9154C34.9987 21.6567 36.4851 22.0454 37.9967 22.0436C40.2859 22.0566 42.4868 21.1634 44.1164 19.56C45.746 17.9566 46.6712 15.774 46.6889 13.4912C46.6702 11.2089 45.7444 9.02715 44.1148 7.42459C42.4851 5.82202 40.2846 4.92945 37.9959 4.94265L37.9967 4.94501ZM37.2124 17.4157C36.706 17.4134 36.2052 17.3087 35.7405 17.1079C35.2757 16.9072 34.8566 16.6145 34.5085 16.2477C34.1603 15.8809 33.8904 15.4475 33.7149 14.9737C33.5395 14.4999 33.4621 13.9956 33.4876 13.4912C33.4626 12.9869 33.5402 12.4829 33.716 12.0094C33.8917 11.5359 34.1618 11.1029 34.51 10.7364C34.8581 10.3699 35.2772 10.0776 35.7418 9.87708C36.2064 9.67658 36.707 9.57204 37.2132 9.56979C38.2627 9.56413 39.2717 9.97378 40.0188 10.7089C40.7658 11.444 41.1901 12.4446 41.1984 13.4912C41.1903 14.5382 40.7659 15.5392 40.0185 16.2745C39.271 17.0099 38.2616 17.4194 37.2116 17.4133L37.2124 17.4157ZM22.5878 31.5434C22.5813 31.4753 22.5496 31.4121 22.4988 31.3661C22.448 31.3201 22.3818 31.2947 22.3132 31.2948H11.0015C10.9295 31.2948 10.8604 31.3233 10.8093 31.374C10.7583 31.4247 10.7295 31.4936 10.7293 31.5654L10.7175 35.7032C10.7175 35.7755 10.7462 35.8448 10.7974 35.896C10.8486 35.9471 10.918 35.976 10.9905 35.9762H16.1804C16.2289 35.9762 16.2764 35.9897 16.3176 36.015C16.3589 36.0403 16.3923 36.0766 16.4141 36.1197C16.4359 36.1629 16.4453 36.2112 16.4413 36.2593C16.4372 36.3075 16.4198 36.3535 16.3911 36.3924C15.835 37.1548 15.1059 37.7751 14.2634 38.2027C13.4209 38.6303 12.4889 38.8531 11.5436 38.8527C9.91481 38.832 8.36074 38.1681 7.22195 37.0067C6.08317 35.8453 5.45257 34.281 5.46837 32.6567C5.45257 31.0324 6.08317 29.4681 7.22195 28.3067C8.36074 27.1453 9.91481 26.4815 11.5436 26.4607C12.4147 26.4655 13.2746 26.6577 14.0643 27.0244C14.8541 27.391 15.5552 27.9234 16.1197 28.5851C16.1644 28.6359 16.2267 28.668 16.2941 28.675C16.3616 28.682 16.4292 28.6634 16.4834 28.6228L20.048 25.9674C20.0876 25.9378 20.1207 25.9005 20.1454 25.8579C20.1702 25.8152 20.186 25.768 20.1921 25.7191C20.1981 25.6702 20.1942 25.6206 20.1806 25.5732C20.1669 25.5258 20.1439 25.4817 20.1127 25.4434C19.1604 24.2659 17.9797 23.2921 16.6412 22.5802C15.0718 21.7479 13.3203 21.3155 11.5428 21.3214C8.56316 21.3595 5.72025 22.5741 3.63704 24.6989C1.55384 26.8236 0.40026 29.6853 0.429114 32.6567C0.39816 35.6298 1.55102 38.4937 3.63479 40.6202C5.71856 42.7467 8.56308 43.9622 11.5444 43.9999C13.3219 44.0058 15.0733 43.5734 16.6428 42.7411C18.1719 41.9277 19.4928 40.7744 20.5033 39.3704C21.2515 38.3317 21.8189 37.1746 22.1815 35.9479C22.4966 34.8802 22.6561 33.7728 22.6549 32.6599C22.6564 32.3286 22.6154 31.8377 22.5878 31.5434ZM40.7755 27.0587H36.1994C36.165 27.0587 36.1309 27.0654 36.0991 27.0786C36.0674 27.0917 36.0385 27.1109 36.0142 27.1352C35.9898 27.1594 35.9705 27.1882 35.9574 27.2199C35.9442 27.2516 35.9374 27.2856 35.9374 27.3199V27.8179C35.9376 27.8409 35.9316 27.8635 35.9201 27.8834C35.9086 27.9033 35.8921 27.9198 35.8721 27.9313C35.8521 27.9427 35.8295 27.9487 35.8064 27.9485C35.7834 27.9484 35.7608 27.9421 35.741 27.9304C34.425 27.1902 32.9393 26.802 31.4284 26.8037C29.1394 26.7903 26.9386 27.6829 25.3087 29.2857C23.6789 30.8884 22.7531 33.0705 22.7345 35.3531C22.7531 37.6357 23.6788 39.8178 25.3087 41.4207C26.9385 43.0236 29.1393 43.9164 31.4284 43.9032C32.94 43.9051 34.4264 43.5163 35.7426 42.7749C35.7624 42.7635 35.785 42.7574 35.8079 42.7574C35.8308 42.7574 35.8534 42.7634 35.8733 42.7748C35.8932 42.7861 35.9097 42.8025 35.9212 42.8223C35.9328 42.8421 35.9389 42.8645 35.939 42.8874V43.1282C35.9389 43.1625 35.9456 43.1965 35.9587 43.2283C35.9719 43.26 35.9912 43.2888 36.0155 43.3131C36.0398 43.3374 36.0688 43.3566 36.1006 43.3697C36.1324 43.3828 36.1665 43.3895 36.201 43.3894H40.7771C40.8114 43.3894 40.8455 43.3826 40.8772 43.3695C40.9089 43.3564 40.9378 43.3371 40.962 43.3128C40.9863 43.2886 41.0055 43.2598 41.0186 43.2281C41.0317 43.1964 41.0383 43.1624 41.0382 43.1282V27.3215C41.0383 27.2871 41.0316 27.253 41.0184 27.2212C41.0053 27.1894 40.9859 27.1605 40.9615 27.1362C40.937 27.112 40.908 27.0927 40.8761 27.0797C40.8442 27.0666 40.81 27.06 40.7755 27.0602V27.0587ZM32.2126 39.2744C31.1627 39.2807 30.1532 38.8714 29.4056 38.1362C28.658 37.401 28.2334 36.4001 28.2251 35.3531C28.233 34.3058 28.6574 33.3045 29.405 32.5689C30.1527 31.8334 31.1624 31.4238 32.2126 31.4301C32.7189 31.4322 33.2195 31.5367 33.6842 31.7372C34.1489 31.9376 34.568 32.23 34.9162 32.5965C35.2644 32.963 35.5345 33.3961 35.7101 33.8696C35.8858 34.3431 35.9634 34.8472 35.9382 35.3515C35.9636 35.8559 35.8862 36.3602 35.7106 36.8339C35.5351 37.3076 35.265 37.7409 34.9168 38.1075C34.5685 38.4742 34.1494 38.7667 33.6846 38.9672C33.2198 39.1678 32.7191 39.2723 32.2126 39.2744V39.2744ZM51.2177 27.0713C50.0146 27.0301 48.8229 27.3156 47.7699 27.8974C47.7501 27.9096 47.7274 27.9163 47.7042 27.9169C47.6809 27.9174 47.6579 27.9117 47.6377 27.9004C47.6174 27.8891 47.6005 27.8725 47.5888 27.8525C47.577 27.8324 47.5709 27.8096 47.571 27.7865V27.3309C47.5711 27.2966 47.5645 27.2627 47.5514 27.231C47.5383 27.1993 47.5191 27.1705 47.4948 27.1462C47.4706 27.122 47.4417 27.1027 47.41 27.0896C47.3783 27.0764 47.3442 27.0697 47.3099 27.0697H42.7338C42.6993 27.0696 42.6652 27.0763 42.6334 27.0894C42.6016 27.1024 42.5727 27.1217 42.5483 27.146C42.524 27.1702 42.5047 27.1991 42.4915 27.2308C42.4784 27.2626 42.4717 27.2966 42.4718 27.3309V43.1368C42.4717 43.1712 42.4784 43.2052 42.4915 43.2369C42.5047 43.2687 42.524 43.2975 42.5483 43.3218C42.5727 43.346 42.6016 43.3653 42.6334 43.3784C42.6652 43.3915 42.6993 43.3981 42.7338 43.398H47.6168C47.6512 43.398 47.6852 43.3913 47.7169 43.3781C47.7487 43.365 47.7775 43.3458 47.8017 43.3215C47.826 43.2972 47.8452 43.2684 47.8583 43.2367C47.8714 43.205 47.8781 43.1711 47.878 43.1368V33.9478C47.8306 33.3692 47.9214 32.7876 48.1431 32.2507C48.2456 32.0498 48.3902 31.8731 48.5672 31.7327C48.7442 31.5924 48.9493 31.4916 49.1687 31.4372C49.7885 31.3445 50.4181 31.3357 51.0402 31.4112C51.0755 31.4145 51.1111 31.4105 51.1447 31.3995C51.1784 31.3886 51.2095 31.3709 51.2361 31.3475C51.2627 31.3242 51.2842 31.2957 51.2994 31.2637C51.3145 31.2318 51.323 31.1971 51.3242 31.1618L51.482 27.3427C51.4837 27.3073 51.478 27.2719 51.4654 27.2388C51.4528 27.2056 51.4335 27.1754 51.4087 27.15C51.384 27.1246 51.3543 27.1045 51.3214 27.0909C51.2886 27.0774 51.2533 27.0707 51.2177 27.0713V27.0713ZM67.328 39.4782L63.7232 37.4035C63.6663 37.37 63.5987 37.3595 63.5343 37.3742C63.4699 37.3888 63.4136 37.4274 63.3768 37.4821C63.0617 38.0209 62.6122 38.4692 62.0718 38.7833C61.5315 39.0974 60.9188 39.2666 60.2934 39.2744C59.7119 39.2756 59.137 39.1502 58.609 38.9071C58.081 38.664 57.6125 38.309 57.2361 37.8669C56.5972 37.1849 56.2418 36.2864 56.2418 35.3531C56.2418 34.4197 56.5972 33.5212 57.2361 32.8393C57.6124 32.3969 58.0809 32.0417 58.6089 31.7984C59.1369 31.555 59.7118 31.4293 60.2934 31.4301C60.9189 31.4378 61.5316 31.6069 62.0721 31.9209C62.6126 32.2348 63.0623 32.6829 63.3776 33.2216C63.4145 33.2762 63.4708 33.3147 63.5352 33.3293C63.5995 33.3439 63.667 33.3336 63.724 33.3003L65.0644 32.5316L67.3856 31.1941C67.4092 31.1807 67.4298 31.1627 67.4463 31.1412C67.4627 31.1197 67.4747 31.0951 67.4815 31.0689C67.4882 31.0427 67.4897 31.0155 67.4857 30.9887C67.4817 30.9619 67.4723 30.9363 67.4582 30.9132V30.9132C67.3157 30.6834 67.1623 30.4605 66.9982 30.2444L66.9919 30.2357C66.831 30.0259 66.6606 29.8227 66.4807 29.626L66.4404 29.5827C66.3615 29.4985 66.2826 29.4167 66.2037 29.3349L66.1603 29.2916C66.0814 29.2129 66.0025 29.1429 65.9236 29.0705C65.8763 29.028 65.8298 28.9863 65.7816 28.9454L65.6783 28.862C64.4094 27.7979 62.865 27.1128 61.2229 26.8856L61.0588 26.8667C60.9901 26.8588 60.9223 26.851 60.8544 26.8447C60.7479 26.8344 60.6422 26.8266 60.5349 26.8203L60.4197 26.8148C60.2911 26.8093 60.1617 26.8053 60.0323 26.8053C57.7436 26.7921 55.5432 27.6846 53.9134 29.2869C52.2836 30.8893 51.3576 33.0708 51.3384 35.3531C51.357 37.6356 52.2826 39.8176 53.9123 41.4204C55.5419 43.0233 57.7426 43.9162 60.0315 43.9032C60.1617 43.9032 60.2903 43.8992 60.4189 43.8937L60.5341 43.8882C60.6414 43.8827 60.7479 43.8741 60.8536 43.8638L61.058 43.841L61.2229 43.8206C62.865 43.5937 64.4094 42.9089 65.6783 41.8449L65.7785 41.7599C65.8258 41.719 65.8731 41.6813 65.9197 41.6356C65.9986 41.5632 66.0775 41.4893 66.1564 41.4137L66.1974 41.3728C66.2724 41.2942 66.3939 41.1722 66.4665 41.0943L66.4799 41.0801C66.6598 40.885 66.8305 40.6818 66.9919 40.4704L66.9982 40.4617C67.1008 40.3264 67.2862 40.0471 67.4164 39.8457C67.4356 39.816 67.4485 39.7828 67.4544 39.748C67.4602 39.7132 67.459 39.6776 67.4506 39.6433C67.4423 39.609 67.4271 39.5768 67.4059 39.5485C67.3846 39.5203 67.3579 39.4966 67.3272 39.479L67.328 39.4782ZM73.0411 27.0697H68.465C68.4306 27.0697 68.3965 27.0764 68.3647 27.0896C68.3329 27.1027 68.3041 27.1219 68.2797 27.1462C68.2554 27.1705 68.2361 27.1992 68.223 27.2309C68.2098 27.2626 68.203 27.2966 68.203 27.3309V43.1368C68.203 43.2061 68.2306 43.2725 68.2797 43.3215C68.3289 43.3705 68.3955 43.398 68.465 43.398H73.0411C73.0755 43.398 73.1095 43.3913 73.1412 43.3781C73.1729 43.365 73.2018 43.3458 73.226 43.3215C73.2503 43.2972 73.2695 43.2684 73.2826 43.2367C73.2957 43.205 73.3023 43.1711 73.3022 43.1368V27.3301C73.3022 27.261 73.2747 27.1948 73.2258 27.146C73.1768 27.0971 73.1104 27.0697 73.0411 27.0697V27.0697ZM73.0411 21.9272H68.465C68.4306 21.9271 68.3966 21.9337 68.3648 21.9468C68.333 21.9598 68.3041 21.979 68.2798 22.0032C68.2555 22.0274 68.2362 22.0561 68.223 22.0878C68.2098 22.1194 68.203 22.1534 68.203 22.1876V25.5189C68.203 25.5882 68.2306 25.6546 68.2797 25.7036C68.3289 25.7526 68.3955 25.7801 68.465 25.7801H73.0411C73.0755 25.7801 73.1095 25.7734 73.1412 25.7602C73.1729 25.7471 73.2018 25.7278 73.226 25.7036C73.2503 25.6793 73.2695 25.6505 73.2826 25.6188C73.2957 25.5871 73.3023 25.5532 73.3022 25.5189V22.1876C73.3022 22.1186 73.2747 22.0523 73.2258 22.0035C73.1768 21.9546 73.1104 21.9272 73.0411 21.9272V21.9272ZM92.2064 27.0602H87.6302C87.5958 27.0602 87.5618 27.067 87.53 27.0801C87.4982 27.0933 87.4693 27.1125 87.445 27.1368C87.4207 27.161 87.4014 27.1898 87.3882 27.2215C87.3751 27.2532 87.3683 27.2872 87.3683 27.3215V27.8195C87.3684 27.8425 87.3624 27.8651 87.351 27.885C87.3395 27.9049 87.3229 27.9214 87.3029 27.9329C87.283 27.9443 87.2603 27.9502 87.2373 27.9501C87.2142 27.9499 87.1917 27.9437 87.1718 27.932C85.8554 27.1912 84.3692 26.8028 82.8577 26.8045C80.5691 26.7915 78.3688 27.6842 76.7393 29.2868C75.1098 30.8893 74.1842 33.0709 74.1654 35.3531C74.184 37.6357 75.1097 39.8178 76.7395 41.4207C78.3693 43.0236 80.5702 43.9164 82.8592 43.9032C84.3709 43.9051 85.8572 43.5163 87.1734 42.7749C87.1933 42.7635 87.2158 42.7574 87.2387 42.7574C87.2617 42.7574 87.2842 42.7634 87.3041 42.7748C87.324 42.7861 87.3406 42.8025 87.3521 42.8223C87.3636 42.8421 87.3698 42.8645 87.3699 42.8874V43.1282C87.3698 43.1625 87.3765 43.1965 87.3896 43.2283C87.4027 43.26 87.422 43.2888 87.4464 43.3131C87.4707 43.3374 87.4996 43.3566 87.5314 43.3697C87.5633 43.3828 87.5974 43.3895 87.6318 43.3894H92.2079C92.2423 43.3894 92.2763 43.3826 92.3081 43.3695C92.3398 43.3564 92.3686 43.3371 92.3929 43.3128C92.4171 43.2886 92.4364 43.2598 92.4494 43.2281C92.4625 43.1964 92.4692 43.1624 92.4691 43.1282V27.3215C92.4692 27.2871 92.4625 27.253 92.4493 27.2212C92.4361 27.1894 92.4167 27.1605 92.3923 27.1362C92.3679 27.112 92.3389 27.0927 92.307 27.0797C92.275 27.0666 92.2408 27.06 92.2064 27.0602V27.0602ZM83.6435 39.2744C82.5937 39.2807 81.5843 38.8715 80.8367 38.1365C80.0891 37.4014 79.6645 36.4007 79.656 35.3539C79.6639 34.3065 80.0882 33.3051 80.8358 32.5694C81.5834 31.8338 82.5932 31.424 83.6435 31.4301C84.1498 31.4322 84.6504 31.5367 85.115 31.7372C85.5797 31.9376 85.9988 32.23 86.347 32.5965C86.6952 32.963 86.9653 33.3961 87.141 33.8696C87.3167 34.3431 87.3942 34.8472 87.3691 35.3515C87.3945 35.8559 87.317 36.3602 87.1415 36.8339C86.9659 37.3076 86.6958 37.7409 86.3476 38.1075C85.9994 38.4742 85.5802 38.7667 85.1154 38.9672C84.6506 39.1678 84.1499 39.2723 83.6435 39.2744V39.2744ZM116.303 28.5111C116.186 28.3963 116.063 28.2883 115.934 28.1877C115.907 28.1665 113.226 26.0594 110.137 27.1106C109.575 27.2717 109.045 27.5291 108.572 27.8714C108.199 28.1334 107.864 28.4435 107.573 28.7936C107.55 28.8225 107.52 28.8461 107.487 28.8627C107.453 28.8793 107.416 28.8885 107.379 28.8897C107.342 28.8909 107.304 28.884 107.27 28.8696C107.235 28.8552 107.204 28.8336 107.179 28.8061C107.09 28.7086 106.995 28.61 106.896 28.5103C106.779 28.3953 106.656 28.2874 106.527 28.1869C106.49 28.157 102.898 25.3466 99.2125 27.8777C99.1929 27.891 99.17 27.8987 99.1462 27.9C99.1225 27.9012 99.0989 27.8961 99.0779 27.885C99.0569 27.8739 99.0394 27.8574 99.0271 27.8371C99.0148 27.8168 99.0083 27.7936 99.0082 27.7699V27.3301C99.0083 27.2958 99.0016 27.2619 98.9885 27.2302C98.9755 27.1985 98.9563 27.1697 98.932 27.1455C98.9077 27.1212 98.8789 27.1019 98.8472 27.0888C98.8154 27.0757 98.7814 27.0689 98.747 27.0689H94.1709C94.1015 27.0689 94.0348 27.0964 93.9857 27.1454C93.9366 27.1944 93.909 27.2608 93.909 27.3301V43.1368C93.9089 43.1712 93.9156 43.2052 93.9287 43.2369C93.9418 43.2687 93.9611 43.2975 93.9855 43.3218C94.0098 43.346 94.0387 43.3653 94.0706 43.3784C94.1024 43.3915 94.1365 43.3981 94.1709 43.398H99.054C99.1233 43.3978 99.1897 43.3702 99.2387 43.3213C99.2876 43.2723 99.3151 43.206 99.3151 43.1368V34.2059C99.2687 33.543 99.3589 32.8776 99.5802 32.2507C99.7887 31.9487 100.077 31.7101 100.413 31.5612C100.749 31.4123 101.12 31.3591 101.484 31.4073C101.916 31.3839 102.343 31.5092 102.693 31.7621C102.889 31.9185 103.046 32.1173 103.153 32.3436C103.376 32.9379 103.474 33.5715 103.442 34.2051L103.453 43.1368C103.453 43.1711 103.459 43.205 103.473 43.2367C103.486 43.2683 103.505 43.2971 103.529 43.3213C103.554 43.3454 103.583 43.3646 103.614 43.3777C103.646 43.3907 103.68 43.3974 103.715 43.3973H108.467C108.536 43.3973 108.603 43.3697 108.652 43.3207C108.701 43.2718 108.729 43.2053 108.729 43.136V34.2059C108.682 33.543 108.772 32.8776 108.994 32.2507C109.201 31.9504 109.488 31.7128 109.822 31.564C110.156 31.4153 110.524 31.361 110.887 31.4073C111.319 31.3839 111.746 31.5091 112.096 31.7621C112.292 31.9185 112.449 32.1174 112.556 32.3436C112.779 32.9378 112.877 33.5714 112.845 34.2051V43.1368C112.845 43.2061 112.872 43.2725 112.921 43.3215C112.97 43.3705 113.037 43.398 113.107 43.398H117.988C118.058 43.398 118.124 43.3705 118.173 43.3215C118.222 43.2725 118.25 43.2061 118.25 43.1368V33.9478C118.25 31.541 117.968 30.1846 116.3 28.5103L116.303 28.5111Z" fill="black"/>
</svg>
