<svg width="225" height="90" viewBox="0 0 225 90" fill="none" xmlns="http://www.w3.org/2000/svg">
<path d="M40.3001 43.4863L25.1768 0.397513C25.136 0.280899 25.0631 0.180395 24.9678 0.109382C24.8724 0.0383695 24.7592 0.000215243 24.6432 0H15.7407C15.6102 0.000853346 15.4829 0.0442394 15.3759 0.124417C15.2688 0.204595 15.1869 0.317783 15.1411 0.449009L0.0327988 43.4863C0.00370956 43.5691 -0.0062435 43.6583 0.00379302 43.7461C0.0138295 43.8339 0.0435562 43.9178 0.0904241 43.9906C0.137292 44.0634 0.199903 44.1229 0.272889 44.164C0.345874 44.2051 0.427057 44.2266 0.509477 44.2266H10.7476C10.8542 44.2269 10.9582 44.1909 11.0446 44.1239C11.1311 44.0568 11.1955 43.9621 11.2287 43.8533L13.3963 36.7979C13.4303 36.6872 13.4961 36.591 13.5841 36.5228C13.6721 36.4546 13.7779 36.4179 13.8864 36.4181H26.448C26.5553 36.4181 26.6599 36.4545 26.7469 36.5221C26.8338 36.5898 26.8987 36.6851 26.9321 36.7947L29.0742 43.7696C29.1152 43.903 29.1943 44.0192 29.3004 44.1015C29.4064 44.1839 29.5339 44.2282 29.6648 44.2283H39.8204C39.9033 44.2288 39.985 44.2077 40.0586 44.1668C40.1321 44.1258 40.1952 44.0662 40.2425 43.9931C40.2897 43.92 40.3197 43.8357 40.3297 43.7474C40.3398 43.6591 40.3296 43.5695 40.3001 43.4863ZM23.3316 27.3928H16.9834C16.9035 27.3927 16.8249 27.3724 16.7538 27.3334C16.6828 27.2944 16.6213 27.2379 16.5745 27.1685C16.5277 27.0991 16.4969 27.0188 16.4846 26.9341C16.4723 26.8495 16.4788 26.7629 16.5037 26.6815L19.671 16.3687C19.7054 16.2568 19.7718 16.1594 19.8607 16.0903C19.9497 16.0212 20.0567 15.984 20.1665 15.984C20.2762 15.984 20.3832 16.0212 20.4722 16.0903C20.5611 16.1594 20.6275 16.2568 20.6619 16.3687L23.8232 26.6686C23.8474 26.7514 23.8531 26.8392 23.8399 26.9248C23.8267 27.0105 23.795 27.0916 23.7474 27.1617C23.6997 27.2318 23.6374 27.289 23.5655 27.3285C23.4935 27.3681 23.4139 27.389 23.3331 27.3896L23.3316 27.3928ZM50.7091 0.136794H41.5188C41.4535 0.136582 41.3888 0.150207 41.3284 0.176883C41.2681 0.203558 41.2132 0.242764 41.167 0.29225C41.1207 0.341737 41.0841 0.40053 41.059 0.465265C41.034 0.53 41.0211 0.599401 41.0211 0.669492V43.5201C41.0211 43.5903 41.034 43.6598 41.059 43.7246C41.084 43.7894 41.1207 43.8483 41.1669 43.898C41.2131 43.9476 41.268 43.9869 41.3283 44.0138C41.3887 44.0406 41.4534 44.0544 41.5188 44.0544H50.7091C50.8408 44.054 50.967 43.9975 51.06 43.8974C51.153 43.7972 51.2052 43.6616 51.2052 43.5201V0.669492C51.2052 0.528212 51.153 0.392721 51.0599 0.292821C50.9669 0.192921 50.8407 0.136794 50.7091 0.136794V0.136794ZM72.1896 10.1148C69.3178 10.1112 66.4941 10.9057 63.9931 12.421C63.9554 12.4449 63.9125 12.4577 63.8688 12.458C63.825 12.4583 63.782 12.4461 63.744 12.4227C63.7061 12.3993 63.6746 12.3655 63.6528 12.3248C63.6309 12.2841 63.6196 12.2378 63.6199 12.1909V0.653395C63.6199 0.512115 63.5676 0.376624 63.4745 0.276724C63.3815 0.176824 63.2553 0.120703 63.1237 0.120703H54.4296C54.3643 0.120491 54.2996 0.13411 54.2392 0.160786C54.1789 0.187461 54.124 0.226667 54.0777 0.276153C54.0315 0.32564 53.9948 0.38444 53.9698 0.449174C53.9448 0.513909 53.9319 0.583304 53.9319 0.653395V43.504C53.9319 43.6458 53.9843 43.7817 54.0777 43.8819C54.171 43.9821 54.2976 44.0384 54.4296 44.0384H63.1237C63.189 44.0384 63.2536 44.0245 63.3139 43.9976C63.3742 43.9708 63.429 43.9314 63.4751 43.8818C63.5212 43.8321 63.5577 43.7732 63.5825 43.7084C63.6074 43.6436 63.6201 43.5741 63.6199 43.504V43.0116C63.6201 42.9648 63.6317 42.9189 63.6536 42.8784C63.6755 42.838 63.707 42.8044 63.7448 42.7811C63.7826 42.7578 63.8254 42.7456 63.869 42.7457C63.9126 42.7457 63.9554 42.758 63.9931 42.7814C66.4938 44.2977 69.3176 45.0928 72.1896 45.0893C76.5389 45.1158 80.7204 43.2888 83.8164 40.0091C86.9125 36.7295 88.6702 32.2651 88.7039 27.5956C88.6683 22.9272 86.9095 18.4646 83.8133 15.1867C80.7171 11.9087 76.5364 10.083 72.1881 10.11L72.1896 10.1148ZM70.6996 35.623C69.7373 35.6183 68.786 35.4041 67.903 34.9935C67.0201 34.5828 66.2238 33.9843 65.5624 33.234C64.9009 32.4837 64.388 31.5972 64.0547 30.6281C63.7213 29.659 63.5744 28.6274 63.6229 27.5956C63.5752 26.5642 63.7228 25.5332 64.0566 24.5647C64.3905 23.5962 64.9036 22.7104 65.5651 21.9608C66.2267 21.2112 67.0228 20.6133 67.9055 20.2031C68.7883 19.793 69.7392 19.5792 70.7011 19.5746C72.695 19.563 74.6119 20.4009 76.0313 21.9046C77.4506 23.4082 78.2566 25.4548 78.2725 27.5956C78.257 29.7372 77.4508 31.7847 76.0307 33.2888C74.6107 34.7929 72.6928 35.6306 70.6981 35.6182L70.6996 35.623ZM42.9143 64.5206C42.902 64.3813 42.8417 64.252 42.7452 64.1579C42.6487 64.0638 42.523 64.0118 42.3927 64.012H20.9017C20.7648 64.012 20.6335 64.0703 20.5366 64.1741C20.4396 64.2779 20.3849 64.4187 20.3846 64.5657L20.3621 73.0292C20.3621 73.1771 20.4167 73.3189 20.5139 73.4236C20.6111 73.5282 20.743 73.5873 20.8807 73.5877H30.7411C30.8331 73.5878 30.9233 73.6152 31.0017 73.6671C31.0801 73.7189 31.1435 73.793 31.185 73.8812C31.2265 73.9695 31.2443 74.0683 31.2366 74.1668C31.2289 74.2653 31.1959 74.3595 31.1413 74.439C30.0848 75.9984 28.6996 77.2673 27.099 78.142C25.4983 79.0166 23.7276 79.4722 21.9315 79.4715C18.8371 79.429 15.8845 78.0712 13.7209 75.6956C11.5574 73.3199 10.3593 70.1202 10.3893 66.7978C10.3593 63.4754 11.5574 60.2758 13.7209 57.9001C15.8845 55.5245 18.8371 54.1666 21.9315 54.1242C23.5866 54.1339 25.2202 54.5272 26.7207 55.2771C28.2212 56.027 29.5532 57.116 30.6256 58.4694C30.7106 58.5734 30.8289 58.6391 30.957 58.6535C31.0852 58.6678 31.2136 58.6297 31.3167 58.5467L38.0891 53.1151C38.1642 53.0545 38.2271 52.9783 38.2741 52.8911C38.3211 52.8038 38.3512 52.7073 38.3627 52.6072C38.3742 52.5072 38.3668 52.4057 38.3409 52.3088C38.315 52.2119 38.2711 52.1216 38.212 52.0433C36.4028 49.6347 34.1595 47.6428 31.6165 46.1868C28.6347 44.4844 25.3072 43.5998 21.93 43.6119C16.2691 43.69 10.8678 46.1743 6.90998 50.5204C2.95212 54.8665 0.76045 60.7199 0.81527 66.7978C0.756461 72.8791 2.94677 78.7371 6.90571 83.0868C10.8646 87.4365 16.2689 89.9226 21.933 89.9999C25.3102 90.0119 28.6377 89.1273 31.6195 87.4249C34.5246 85.7613 37.0342 83.4023 38.954 80.5304C40.3756 78.4058 41.4535 76.0391 42.1424 73.5298C42.7412 71.3459 43.0441 69.0808 43.0417 66.8043C43.0447 66.1267 42.9668 65.1225 42.9143 64.5206ZM77.469 55.3473H68.7749C68.7095 55.3473 68.6448 55.3611 68.5844 55.3879C68.524 55.4148 68.4692 55.4542 68.423 55.5038C68.3768 55.5534 68.3401 55.6123 68.3151 55.6771C68.2901 55.7419 68.2772 55.8114 68.2772 55.8816V56.9003C68.2775 56.9473 68.2661 56.9935 68.2443 57.0342C68.2225 57.075 68.191 57.1088 68.1531 57.1322C68.1151 57.1556 68.072 57.1677 68.0283 57.1674C67.9845 57.1671 67.9416 57.1544 67.904 57.1304C65.4037 55.6163 62.5811 54.8224 59.7105 54.8258C55.3617 54.7984 51.1803 56.6242 48.0838 59.9025C44.9872 63.1809 43.2284 67.6442 43.1931 72.3131C43.2284 76.9821 44.9872 81.4456 48.0837 84.7242C51.1802 88.0028 55.3616 89.8289 59.7105 89.8019C62.5825 89.8058 65.4064 89.0107 67.907 87.4941C67.9447 87.4707 67.9875 87.4584 68.0311 87.4583C68.0747 87.4583 68.1175 87.4705 68.1553 87.4938C68.1931 87.5171 68.2245 87.5507 68.2464 87.5911C68.2684 87.6315 68.28 87.6775 68.2802 87.7243V88.2167C68.28 88.2869 68.2927 88.3565 68.3177 88.4214C68.3426 88.4864 68.3793 88.5453 68.4255 88.595C68.4718 88.6447 68.5267 88.684 68.5872 88.7108C68.6477 88.7376 68.7125 88.7512 68.7779 88.751H77.472C77.5373 88.751 77.6019 88.7372 77.6622 88.7103C77.7225 88.6834 77.7773 88.6441 77.8234 88.5944C77.8695 88.5448 77.906 88.4859 77.9308 88.4211C77.9557 88.3562 77.9684 88.2868 77.9682 88.2167V55.8848C77.9684 55.8144 77.9556 55.7447 77.9305 55.6797C77.9055 55.6147 77.8687 55.5556 77.8223 55.5059C77.7759 55.4563 77.7208 55.4169 77.6601 55.3903C77.5995 55.3636 77.5345 55.3501 77.469 55.3505V55.3473ZM61.2005 80.3341C59.2057 80.347 57.2877 79.5096 55.8674 78.0058C54.447 76.502 53.6404 74.4547 53.6246 72.3131C53.6397 70.1709 54.4459 68.1227 55.8663 66.6183C57.2867 65.1138 59.2052 64.276 61.2005 64.2888C62.1624 64.2932 63.1135 64.5069 63.9963 64.9169C64.8791 65.327 65.6753 65.9249 66.3369 66.6746C66.9985 67.4243 67.5116 68.3102 67.8454 69.2787C68.1791 70.2473 68.3265 71.2784 68.2787 72.3099C68.3269 73.3416 68.1798 74.3731 67.8463 75.342C67.5127 76.3109 66.9996 77.1972 66.338 77.9472C65.6764 78.6973 64.88 79.2955 63.997 79.7057C63.114 80.116 62.1626 80.3297 61.2005 80.3341V80.3341ZM97.3081 55.373C95.0223 55.2888 92.7582 55.8729 90.7575 57.0628C90.72 57.0879 90.6769 57.1016 90.6327 57.1027C90.5885 57.1038 90.5449 57.0921 90.5063 57.069C90.4678 57.0458 90.4357 57.012 90.4134 56.971C90.3912 56.93 90.3796 56.8834 90.3798 56.8359V55.9041C90.38 55.834 90.3673 55.7646 90.3424 55.6998C90.3176 55.6349 90.2811 55.576 90.235 55.5264C90.1889 55.4768 90.1341 55.4374 90.0738 55.4105C90.0135 55.3836 89.9489 55.3698 89.8836 55.3698H81.1895C81.1241 55.3696 81.0593 55.3833 80.9988 55.41C80.9383 55.4368 80.8834 55.4762 80.8371 55.5258C80.7909 55.5755 80.7542 55.6345 80.7293 55.6994C80.7044 55.7643 80.6916 55.8339 80.6918 55.9041V88.2344C80.6916 88.3046 80.7044 88.3742 80.7293 88.4391C80.7542 88.5041 80.7909 88.563 80.8371 88.6127C80.8834 88.6624 80.9383 88.7017 80.9988 88.7285C81.0593 88.7553 81.1241 88.7689 81.1895 88.7687H90.4667C90.532 88.7687 90.5966 88.7549 90.6569 88.728C90.7172 88.7012 90.772 88.6618 90.8181 88.6121C90.8642 88.5625 90.9007 88.5036 90.9255 88.4388C90.9504 88.374 90.9631 88.3045 90.9629 88.2344V69.4388C90.8729 68.2552 91.0455 67.0655 91.4665 65.9674C91.6613 65.5563 91.9362 65.195 92.2724 64.9079C92.6086 64.6208 92.9983 64.4146 93.4152 64.3033C94.5928 64.1137 95.7888 64.0958 96.9708 64.2502C97.0379 64.2568 97.1054 64.2487 97.1694 64.2263C97.2334 64.2039 97.2925 64.1677 97.343 64.1199C97.3935 64.0722 97.4344 64.0139 97.4632 63.9485C97.492 63.8832 97.5081 63.8123 97.5105 63.7401L97.8103 55.9283C97.8133 55.8558 97.8026 55.7835 97.7786 55.7157C97.7547 55.6479 97.718 55.5861 97.671 55.5341C97.6239 55.4821 97.5675 55.4409 97.5051 55.4132C97.4427 55.3855 97.3756 55.3719 97.3081 55.373V55.373ZM127.916 80.7509L121.067 76.5071C120.959 76.4387 120.831 76.4172 120.708 76.4472C120.586 76.4771 120.479 76.5561 120.409 76.668C119.81 77.7701 118.956 78.6869 117.93 79.3294C116.903 79.9719 115.739 80.318 114.551 80.3341C113.446 80.3364 112.354 80.08 111.351 79.5827C110.348 79.0855 109.457 78.3594 108.742 77.455C107.528 76.06 106.853 74.2222 106.853 72.3131C106.853 70.404 107.528 68.5662 108.742 67.1712C109.457 66.2665 110.347 65.5399 111.351 65.0421C112.354 64.5443 113.446 64.2873 114.551 64.2888C115.739 64.3047 116.903 64.6505 117.93 65.2927C118.957 65.9348 119.812 66.8515 120.41 67.9533C120.481 68.0649 120.588 68.1437 120.71 68.1736C120.832 68.2035 120.96 68.1823 121.069 68.1143L123.615 66.5419L128.025 63.806C128.07 63.7786 128.109 63.7418 128.141 63.6979C128.172 63.6539 128.195 63.6036 128.207 63.5501C128.22 63.4965 128.223 63.4407 128.215 63.386C128.208 63.3313 128.19 63.2787 128.163 63.2315V63.2315C127.892 62.7616 127.601 62.3056 127.289 61.8635L127.277 61.8458C126.972 61.4167 126.648 61.0009 126.306 60.5986L126.23 60.5101C126.08 60.3379 125.93 60.1705 125.78 60.0031L125.697 59.9146C125.548 59.7537 125.398 59.6105 125.248 59.4624C125.158 59.3755 125.069 59.2902 124.978 59.2065L124.782 59.0359C122.371 56.8593 119.437 55.4579 116.317 54.9932L116.005 54.9546C115.875 54.9385 115.746 54.9224 115.617 54.9095C115.414 54.8886 115.214 54.8725 115.01 54.8596L114.791 54.8484C114.546 54.8371 114.301 54.8291 114.055 54.8291C109.707 54.8021 105.526 56.6275 102.43 59.9051C99.3332 63.1827 97.5739 67.6449 97.5374 72.3131C97.5727 76.9819 99.3313 81.445 102.427 84.7236C105.524 88.0022 109.705 89.8285 114.053 89.8019C114.301 89.8019 114.545 89.7939 114.789 89.7826L115.008 89.7713C115.212 89.7601 115.414 89.7424 115.615 89.7215L116.003 89.6748L116.317 89.6329C119.437 89.169 122.371 87.7681 124.782 85.5919L124.972 85.418C125.062 85.3344 125.152 85.2571 125.24 85.1638C125.39 85.0157 125.54 84.8644 125.69 84.7099L125.768 84.6262C125.91 84.4653 126.141 84.2159 126.279 84.0565L126.305 84.0276C126.646 83.6284 126.971 83.2127 127.277 82.7803L127.289 82.7626C127.484 82.4858 127.836 81.9145 128.084 81.5025C128.12 81.4418 128.145 81.3738 128.156 81.3027C128.167 81.2315 128.165 81.1587 128.149 81.0885C128.133 81.0184 128.104 80.9524 128.064 80.8947C128.023 80.8369 127.973 80.7886 127.914 80.7525L127.916 80.7509ZM138.77 55.3698H130.076C130.011 55.3698 129.946 55.3836 129.886 55.4105C129.825 55.4373 129.77 55.4767 129.724 55.5263C129.678 55.5759 129.641 55.6348 129.616 55.6996C129.591 55.7645 129.578 55.8339 129.578 55.9041V88.2344C129.578 88.3761 129.631 88.512 129.724 88.6122C129.817 88.7124 129.944 88.7687 130.076 88.7687H138.77C138.835 88.7687 138.9 88.7549 138.96 88.728C139.021 88.7012 139.075 88.6618 139.121 88.6121C139.168 88.5625 139.204 88.5036 139.229 88.4388C139.254 88.374 139.266 88.3045 139.266 88.2344V55.9025C139.266 55.7612 139.214 55.6257 139.121 55.5258C139.028 55.4259 138.902 55.3698 138.77 55.3698V55.3698ZM138.77 44.8511H130.076C130.011 44.8509 129.946 44.8645 129.886 44.8912C129.825 44.9178 129.77 44.957 129.724 45.0065C129.678 45.056 129.641 45.1148 129.616 45.1795C129.591 45.2443 129.578 45.3137 129.578 45.3838V52.1978C129.578 52.3395 129.631 52.4754 129.724 52.5756C129.817 52.6758 129.944 52.7321 130.076 52.7321H138.77C138.835 52.7321 138.9 52.7182 138.96 52.6914C139.021 52.6645 139.075 52.6251 139.121 52.5755C139.168 52.5259 139.204 52.4669 139.229 52.4021C139.254 52.3373 139.266 52.2679 139.266 52.1978V45.3838C139.266 45.2425 139.214 45.107 139.121 45.0071C139.028 44.9072 138.902 44.8511 138.77 44.8511V44.8511ZM175.182 55.3505H166.488C166.423 55.3505 166.358 55.3643 166.297 55.3912C166.237 55.418 166.182 55.4574 166.136 55.507C166.09 55.5566 166.053 55.6155 166.028 55.6803C166.003 55.7452 165.99 55.8146 165.99 55.8848V56.9035C165.99 56.9505 165.979 56.9967 165.957 57.0375C165.935 57.0782 165.904 57.112 165.866 57.1354C165.828 57.1588 165.785 57.1709 165.741 57.1706C165.698 57.1703 165.655 57.1576 165.617 57.1337C163.116 55.6184 160.292 54.8239 157.421 54.8275C153.072 54.8009 148.892 56.6268 145.796 59.9047C142.7 63.1827 140.942 67.645 140.906 72.3131C140.941 76.9821 142.7 81.4456 145.797 84.7242C148.893 88.0028 153.075 89.8289 157.423 89.8019C160.295 89.8058 163.119 89.0107 165.62 87.4941C165.658 87.4707 165.701 87.4584 165.744 87.4583C165.788 87.4583 165.831 87.4705 165.868 87.4938C165.906 87.5171 165.938 87.5507 165.959 87.5911C165.981 87.6315 165.993 87.6775 165.993 87.7243V88.2167C165.993 88.2869 166.006 88.3565 166.031 88.4214C166.056 88.4864 166.092 88.5453 166.139 88.595C166.185 88.6447 166.24 88.684 166.3 88.7108C166.361 88.7376 166.425 88.7512 166.491 88.751H175.185C175.25 88.751 175.315 88.7372 175.375 88.7103C175.436 88.6834 175.49 88.6441 175.536 88.5944C175.582 88.5448 175.619 88.4859 175.644 88.4211C175.669 88.3562 175.681 88.2868 175.681 88.2167V55.8848C175.681 55.8144 175.669 55.7447 175.644 55.6797C175.619 55.6147 175.582 55.5556 175.535 55.5059C175.489 55.4563 175.434 55.4169 175.373 55.3903C175.312 55.3636 175.248 55.3501 175.182 55.3505V55.3505ZM158.913 80.3341C156.919 80.347 155.001 79.5098 153.581 78.0064C152.161 76.5029 151.354 74.456 151.338 72.3147C151.353 70.1724 152.159 68.124 153.579 66.6193C155 65.1146 156.918 64.2764 158.913 64.2888C159.875 64.2932 160.826 64.5069 161.709 64.9169C162.592 65.327 163.388 65.9249 164.05 66.6746C164.711 67.4243 165.225 68.3102 165.558 69.2787C165.892 70.2473 166.04 71.2784 165.992 72.3099C166.04 73.3416 165.893 74.3731 165.559 75.342C165.226 76.3109 164.713 77.1972 164.051 77.9472C163.389 78.6973 162.593 79.2955 161.71 79.7057C160.827 80.116 159.876 80.3297 158.913 80.3341V80.3341ZM220.963 58.3181C220.741 58.0833 220.508 57.8624 220.263 57.6567C220.212 57.6132 215.117 53.3034 209.248 55.4535C208.18 55.783 207.174 56.3096 206.274 57.0097C205.567 57.5455 204.929 58.1798 204.378 58.8959C204.333 58.9552 204.277 59.0034 204.213 59.0373C204.149 59.0712 204.08 59.0901 204.009 59.0925C203.937 59.0949 203.867 59.0809 203.801 59.0515C203.735 59.022 203.677 58.9777 203.628 58.9217C203.458 58.7221 203.279 58.5204 203.09 58.3165C202.869 58.0814 202.635 57.8605 202.39 57.6551C202.32 57.5939 195.495 51.8453 188.493 57.0226C188.456 57.0498 188.412 57.0655 188.367 57.0681C188.322 57.0707 188.277 57.0601 188.237 57.0375C188.197 57.0148 188.164 56.981 188.141 56.9395C188.117 56.8981 188.105 56.8506 188.105 56.8021V55.9025C188.105 55.8324 188.092 55.763 188.067 55.6982C188.043 55.6333 188.006 55.5744 187.96 55.5248C187.914 55.4752 187.859 55.4358 187.799 55.4089C187.739 55.382 187.674 55.3682 187.609 55.3682H178.914C178.782 55.3682 178.656 55.4245 178.563 55.5247C178.469 55.6249 178.417 55.7608 178.417 55.9025V88.2344C178.417 88.3046 178.429 88.3742 178.454 88.4391C178.479 88.5041 178.516 88.563 178.562 88.6127C178.608 88.6624 178.663 88.7017 178.724 88.7285C178.784 88.7553 178.849 88.7689 178.914 88.7687H188.192C188.323 88.7683 188.45 88.7118 188.543 88.6117C188.636 88.5115 188.688 88.3758 188.688 88.2344V69.9666C188.6 68.6106 188.771 67.2496 189.192 65.9674C189.588 65.3496 190.135 64.8615 190.773 64.557C191.412 64.2525 192.116 64.1436 192.809 64.2422C193.629 64.1944 194.44 64.4506 195.105 64.968C195.477 65.2878 195.776 65.6946 195.979 66.1573C196.402 67.373 196.589 68.6689 196.528 69.965L196.549 88.2344C196.549 88.3045 196.561 88.3739 196.586 88.4386C196.612 88.5034 196.648 88.5622 196.694 88.6117C196.741 88.6611 196.796 88.7004 196.856 88.727C196.916 88.7537 196.981 88.7673 197.046 88.7671H206.075C206.207 88.7671 206.333 88.7108 206.427 88.6106C206.52 88.5104 206.572 88.3745 206.572 88.2328V69.9666C206.484 68.6106 206.656 67.2496 207.076 65.9674C207.47 65.3531 208.015 64.8671 208.649 64.5628C209.284 64.2585 209.984 64.1476 210.674 64.2422C211.494 64.1943 212.305 64.4505 212.97 64.968C213.342 65.2879 213.641 65.6947 213.844 66.1573C214.268 67.3728 214.454 68.6688 214.393 69.965V88.2344C214.393 88.3761 214.445 88.512 214.538 88.6122C214.632 88.7124 214.758 88.7687 214.89 88.7687H224.164C224.296 88.7687 224.423 88.7124 224.516 88.6122C224.61 88.512 224.662 88.3761 224.662 88.2344V69.4388C224.662 64.5158 224.127 61.7412 220.957 58.3165L220.963 58.3181Z" fill="#D5FF40"/>
</svg>
